%TF.GenerationSoftware,KiCad,Pcbnew,(6.0.9)*%
%TF.CreationDate,2022-11-13T21:00:24-06:00*%
%TF.ProjectId,melodyous-micro,6d656c6f-6479-46f7-9573-2d6d6963726f,rev?*%
%TF.SameCoordinates,Original*%
%TF.FileFunction,Copper,L1,Top*%
%TF.FilePolarity,Positive*%
%FSLAX46Y46*%
G04 Gerber Fmt 4.6, Leading zero omitted, Abs format (unit mm)*
G04 Created by KiCad (PCBNEW (6.0.9)) date 2022-11-13 21:00:24*
%MOMM*%
%LPD*%
G01*
G04 APERTURE LIST*
G04 Aperture macros list*
%AMRoundRect*
0 Rectangle with rounded corners*
0 $1 Rounding radius*
0 $2 $3 $4 $5 $6 $7 $8 $9 X,Y pos of 4 corners*
0 Add a 4 corners polygon primitive as box body*
4,1,4,$2,$3,$4,$5,$6,$7,$8,$9,$2,$3,0*
0 Add four circle primitives for the rounded corners*
1,1,$1+$1,$2,$3*
1,1,$1+$1,$4,$5*
1,1,$1+$1,$6,$7*
1,1,$1+$1,$8,$9*
0 Add four rect primitives between the rounded corners*
20,1,$1+$1,$2,$3,$4,$5,0*
20,1,$1+$1,$4,$5,$6,$7,0*
20,1,$1+$1,$6,$7,$8,$9,0*
20,1,$1+$1,$8,$9,$2,$3,0*%
%AMFreePoly0*
4,1,6,0.500000,-0.750000,-0.650000,-0.750000,-0.150000,0.000000,-0.650000,0.750000,0.500000,0.750000,0.500000,-0.750000,0.500000,-0.750000,$1*%
%AMFreePoly1*
4,1,6,1.000000,0.000000,0.500000,-0.750000,-0.500000,-0.750000,-0.500000,0.750000,0.500000,0.750000,1.000000,0.000000,1.000000,0.000000,$1*%
%AMFreePoly2*
4,1,17,0.377620,0.861655,0.861655,0.377620,0.876300,0.342265,0.876300,-0.342265,0.861655,-0.377620,0.377620,-0.861655,0.342265,-0.876300,-0.342265,-0.876300,-0.377620,-0.861655,-0.861655,-0.377620,-0.876300,-0.342265,-0.876300,0.342265,-0.861655,0.377620,-0.377620,0.861655,-0.342265,0.876300,0.342265,0.876300,0.377620,0.861655,0.377620,0.861655,$1*%
G04 Aperture macros list end*
%TA.AperFunction,SMDPad,CuDef*%
%ADD10R,1.200000X0.900000*%
%TD*%
%TA.AperFunction,SMDPad,CuDef*%
%ADD11R,1.450000X0.450000*%
%TD*%
%TA.AperFunction,SMDPad,CuDef*%
%ADD12RoundRect,0.250000X-0.350000X-0.450000X0.350000X-0.450000X0.350000X0.450000X-0.350000X0.450000X0*%
%TD*%
%TA.AperFunction,SMDPad,CuDef*%
%ADD13R,1.780000X2.000000*%
%TD*%
%TA.AperFunction,SMDPad,CuDef*%
%ADD14FreePoly0,180.000000*%
%TD*%
%TA.AperFunction,SMDPad,CuDef*%
%ADD15FreePoly1,180.000000*%
%TD*%
%TA.AperFunction,SMDPad,CuDef*%
%ADD16RoundRect,0.250000X-0.625000X0.400000X-0.625000X-0.400000X0.625000X-0.400000X0.625000X0.400000X0*%
%TD*%
%TA.AperFunction,SMDPad,CuDef*%
%ADD17FreePoly0,0.000000*%
%TD*%
%TA.AperFunction,SMDPad,CuDef*%
%ADD18FreePoly1,0.000000*%
%TD*%
%TA.AperFunction,SMDPad,CuDef*%
%ADD19RoundRect,0.250000X0.450000X-0.262500X0.450000X0.262500X-0.450000X0.262500X-0.450000X-0.262500X0*%
%TD*%
%TA.AperFunction,ComponentPad*%
%ADD20R,3.000000X1.752600*%
%TD*%
%TA.AperFunction,ComponentPad*%
%ADD21O,3.000000X1.752600*%
%TD*%
%TA.AperFunction,ComponentPad*%
%ADD22O,1.752600X3.000000*%
%TD*%
%TA.AperFunction,ComponentPad*%
%ADD23R,1.752600X3.000000*%
%TD*%
%TA.AperFunction,ComponentPad*%
%ADD24FreePoly2,0.000000*%
%TD*%
%TA.AperFunction,ViaPad*%
%ADD25C,0.800000*%
%TD*%
%TA.AperFunction,Conductor*%
%ADD26C,0.250000*%
%TD*%
G04 APERTURE END LIST*
D10*
%TO.P,D1,2,A*%
%TO.N,Net-(D1-Pad2)*%
X130770000Y-67909998D03*
%TO.P,D1,1,K*%
%TO.N,Net-(D1-Pad1)*%
X130770000Y-71209998D03*
%TD*%
D11*
%TO.P,MCP42010,1,~{CS}*%
%TO.N,Net-(MCP42010-Pad1)*%
X133860000Y-78940000D03*
%TO.P,MCP42010,2,SCK*%
%TO.N,Net-(MCP42010-Pad2)*%
X133860000Y-78290000D03*
%TO.P,MCP42010,3,SI*%
%TO.N,Net-(MCP42010-Pad3)*%
X133860000Y-77640000D03*
%TO.P,MCP42010,4,VSS*%
%TO.N,Net-(ISOLATOR1-Pad5)*%
X133860000Y-76990000D03*
%TO.P,MCP42010,5,PB1*%
X133860000Y-76340000D03*
%TO.P,MCP42010,6,PW1*%
%TO.N,Net-(MCP42010-Pad6)*%
X133860000Y-75690000D03*
%TO.P,MCP42010,7,PA1*%
%TO.N,Net-(ISOLATOR1-Pad8)*%
X133860000Y-75040000D03*
%TO.P,MCP42010,8,PA0*%
%TO.N,Net-(MCP42010-Pad6)*%
X127960000Y-75040000D03*
%TO.P,MCP42010,9,PW0*%
%TO.N,Net-(MCP42010-Pad9)*%
X127960000Y-75690000D03*
%TO.P,MCP42010,10,PB0*%
%TO.N,Net-(MCP42010-Pad10)*%
X127960000Y-76340000D03*
%TO.P,MCP42010,11,~{RS}*%
%TO.N,unconnected-(MCP42010-Pad11)*%
X127960000Y-76990000D03*
%TO.P,MCP42010,12,~{SHDN}*%
%TO.N,unconnected-(MCP42010-Pad12)*%
X127960000Y-77640000D03*
%TO.P,MCP42010,13,SO*%
%TO.N,unconnected-(MCP42010-Pad13)*%
X127960000Y-78290000D03*
%TO.P,MCP42010,14,VDD*%
%TO.N,Net-(ISOLATOR1-Pad8)*%
X127960000Y-78940000D03*
%TD*%
D12*
%TO.P,R1,2*%
%TO.N,Net-(ISOLATOR1-Pad8)*%
X133840000Y-73060000D03*
%TO.P,R1,1*%
%TO.N,Net-(ISOLATOR1-Pad6)*%
X131840000Y-73060000D03*
%TD*%
D13*
%TO.P,ISOLATOR1,8,VCC*%
%TO.N,Net-(ISOLATOR1-Pad8)*%
X117690000Y-69205000D03*
%TO.P,ISOLATOR1,7,VO1*%
%TO.N,Net-(ISOLATOR1-Pad7)*%
X120230000Y-69205000D03*
%TO.P,ISOLATOR1,6,VO2*%
%TO.N,Net-(ISOLATOR1-Pad6)*%
X122770000Y-69205000D03*
%TO.P,ISOLATOR1,5,GND*%
%TO.N,Net-(ISOLATOR1-Pad5)*%
X125310000Y-69205000D03*
%TO.P,ISOLATOR1,4,NC*%
%TO.N,unconnected-(ISOLATOR1-Pad4)*%
X125310000Y-78735000D03*
%TO.P,ISOLATOR1,3,C2*%
%TO.N,Net-(D1-Pad2)*%
X122770000Y-78735000D03*
%TO.P,ISOLATOR1,2,C1*%
%TO.N,Net-(D1-Pad1)*%
X120230000Y-78735000D03*
%TO.P,ISOLATOR1,1,NC*%
%TO.N,unconnected-(ISOLATOR1-Pad1)*%
X117690000Y-78735000D03*
%TD*%
D14*
%TO.P,JP2,2,B*%
%TO.N,Net-(ISOLATOR1-Pad8)*%
X112090000Y-78900000D03*
D15*
%TO.P,JP2,1,A*%
%TO.N,Net-(JP2-Pad1)*%
X113540000Y-78900000D03*
%TD*%
D16*
%TO.P,R2,2*%
%TO.N,Net-(ISOLATOR1-Pad5)*%
X114850000Y-71920000D03*
%TO.P,R2,1*%
%TO.N,Net-(ISOLATOR1-Pad7)*%
X114850000Y-68820000D03*
%TD*%
D17*
%TO.P,JP1,2,B*%
%TO.N,Net-(ISOLATOR1-Pad8)*%
X110145000Y-78900000D03*
D18*
%TO.P,JP1,1,A*%
%TO.N,Net-(JP1-Pad1)*%
X108695000Y-78900000D03*
%TD*%
D19*
%TO.P,R3,2*%
%TO.N,Net-(D1-Pad1)*%
X133100000Y-68855000D03*
%TO.P,R3,1*%
%TO.N,Net-(J1-PadA)*%
X133100000Y-70680000D03*
%TD*%
D20*
%TO.P,J1,C*%
%TO.N,Net-(D1-Pad2)*%
X136660400Y-68320000D03*
D21*
%TO.P,J1,A*%
%TO.N,Net-(J1-PadA)*%
X136660400Y-70682000D03*
%TD*%
D22*
%TO.P,U1,24,RAW*%
%TO.N,Net-(JP1-Pad1)*%
X107910000Y-81900400D03*
D23*
%TO.P,U1,23,GND*%
%TO.N,Net-(ISOLATOR1-Pad5)*%
X110450000Y-81900400D03*
D24*
%TO.P,U1,22,RST*%
%TO.N,unconnected-(U1-Pad22)*%
X112990000Y-81240000D03*
D22*
%TO.P,U1,21,VCC*%
%TO.N,Net-(JP2-Pad1)*%
X115530000Y-81900400D03*
D24*
%TO.P,U1,20,A3/PF4*%
%TO.N,unconnected-(U1-Pad20)*%
X118070000Y-81240000D03*
%TO.P,U1,19,A2/PF5*%
%TO.N,unconnected-(U1-Pad19)*%
X120610000Y-81240000D03*
%TO.P,U1,18,A1/PF6*%
%TO.N,unconnected-(U1-Pad18)*%
X123150000Y-81240000D03*
%TO.P,U1,17,A0/PF7*%
%TO.N,unconnected-(U1-Pad17)*%
X125690000Y-81240000D03*
%TO.P,U1,16,15/PB1*%
%TO.N,Net-(MCP42010-Pad2)*%
X128230000Y-81240000D03*
%TO.P,U1,15,14/PB3*%
%TO.N,unconnected-(U1-Pad15)*%
X130770000Y-81240000D03*
%TO.P,U1,14,16/PB2*%
%TO.N,Net-(MCP42010-Pad3)*%
X133310000Y-81240000D03*
%TO.P,U1,13,10/PB6*%
%TO.N,Net-(MCP42010-Pad1)*%
X135850000Y-81240000D03*
%TO.P,U1,12,9/PB5*%
%TO.N,unconnected-(U1-Pad12)*%
X135850000Y-66000000D03*
%TO.P,U1,11,8/PB4*%
%TO.N,unconnected-(U1-Pad11)*%
X133310000Y-66000000D03*
%TO.P,U1,10,7/PE6*%
%TO.N,unconnected-(U1-Pad10)*%
X130770000Y-66000000D03*
%TO.P,U1,9,6/PD7*%
%TO.N,unconnected-(U1-Pad9)*%
X128230000Y-66000000D03*
%TO.P,U1,8,5/PC6*%
%TO.N,unconnected-(U1-Pad8)*%
X125690000Y-66000000D03*
%TO.P,U1,7,4/PD4*%
%TO.N,unconnected-(U1-Pad7)*%
X123150000Y-66000000D03*
%TO.P,U1,6,3/PD0*%
%TO.N,unconnected-(U1-Pad6)*%
X120610000Y-66000000D03*
%TO.P,U1,5,2/PD1*%
%TO.N,unconnected-(U1-Pad5)*%
X118070000Y-66000000D03*
D23*
%TO.P,U1,4,GND*%
%TO.N,Net-(ISOLATOR1-Pad5)*%
X115530000Y-65339600D03*
%TO.P,U1,3,GND*%
X112990000Y-65339600D03*
D24*
%TO.P,U1,2,RX1/PD2*%
%TO.N,Net-(ISOLATOR1-Pad6)*%
X110450000Y-66000000D03*
%TO.P,U1,1,TX0/PD3*%
%TO.N,unconnected-(U1-Pad1)*%
X107910000Y-66000000D03*
%TD*%
D21*
%TO.P,POTW1,2,Pin_2*%
%TO.N,Net-(MCP42010-Pad10)*%
X136660400Y-76568000D03*
D20*
%TO.P,POTW1,1,Pin_1*%
%TO.N,Net-(MCP42010-Pad9)*%
X136660400Y-78900000D03*
%TD*%
D25*
%TO.N,Net-(D1-Pad2)*%
X129190000Y-67970000D03*
X122212109Y-72226218D03*
%TO.N,Net-(ISOLATOR1-Pad5)*%
X132305070Y-76607799D03*
X125340000Y-71200000D03*
%TO.N,Net-(ISOLATOR1-Pad6)*%
X129860000Y-74170000D03*
%TO.N,Net-(ISOLATOR1-Pad8)*%
X117690000Y-71220000D03*
X135730000Y-73000000D03*
%TO.N,Net-(MCP42010-Pad2)*%
X132270000Y-78290000D03*
%TO.N,Net-(MCP42010-Pad9)*%
X126200000Y-76160000D03*
%TO.N,Net-(MCP42010-Pad10)*%
X130960000Y-75800000D03*
%TD*%
D26*
%TO.N,Net-(JP1-Pad1)*%
X108302500Y-79292500D02*
X108695000Y-78900000D01*
X107910000Y-80240078D02*
X107910000Y-81240000D01*
X107909992Y-80240078D02*
G75*
G02*
X108302501Y-79292501I1340108J-22D01*
G01*
%TO.N,Net-(JP2-Pad1)*%
X115154436Y-78900000D02*
X113540000Y-78900000D01*
X115530000Y-79275563D02*
X115530000Y-81240000D01*
X115530015Y-79275563D02*
G75*
G03*
X115420000Y-79010000I-375615J-37D01*
G01*
X115154436Y-78899985D02*
G75*
G02*
X115420000Y-79010000I-36J-375615D01*
G01*
%TO.N,Net-(MCP42010-Pad6)*%
X135378425Y-75201573D02*
X135254159Y-75325840D01*
X135721342Y-72035000D02*
X133489999Y-72035000D01*
X135961573Y-73793731D02*
X136573167Y-73182137D01*
X136427500Y-72327500D02*
X136573167Y-72473167D01*
X132915000Y-73817035D02*
X132915000Y-72609999D01*
X131692035Y-75040000D02*
X127960000Y-75040000D01*
X135961546Y-73793704D02*
G75*
G03*
X135670000Y-74497652I703954J-703896D01*
G01*
X132556792Y-74681792D02*
G75*
G03*
X132915000Y-73817035I-864792J864792D01*
G01*
X133083414Y-72203414D02*
G75*
G03*
X132915000Y-72609999I406586J-406586D01*
G01*
X136719970Y-72827652D02*
G75*
G02*
X136573166Y-73182136I-501270J-48D01*
G01*
X135378451Y-75201599D02*
G75*
G03*
X135670000Y-74497652I-703951J703899D01*
G01*
X131692035Y-75040014D02*
G75*
G03*
X132556801Y-74681801I-35J1223014D01*
G01*
X134375000Y-75690005D02*
G75*
G03*
X135254159Y-75325840I0J1243305D01*
G01*
X133083414Y-72203414D02*
G75*
G02*
X133489999Y-72035000I406586J-406586D01*
G01*
X136427488Y-72327512D02*
G75*
G03*
X135721342Y-72035000I-706188J-706188D01*
G01*
X136573140Y-72473194D02*
G75*
G02*
X136720000Y-72827652I-354440J-354506D01*
G01*
%TO.N,Net-(D1-Pad1)*%
X132047149Y-68855000D02*
X133100000Y-68855000D01*
X121443535Y-67440000D02*
X125873020Y-67440000D01*
X127796898Y-68236896D02*
X130770000Y-71209998D01*
X120230000Y-76269134D02*
X120230000Y-78735000D01*
X130730000Y-69610000D02*
X131087500Y-69252500D01*
X121445000Y-73335865D02*
X121445000Y-67448535D01*
X130770000Y-69786568D02*
X130770000Y-71209998D01*
X130770013Y-69786568D02*
G75*
G03*
X130730000Y-69690000I-136613J-32D01*
G01*
X130730000Y-69690000D02*
G75*
G02*
X130730000Y-69610000I40000J40000D01*
G01*
X121442439Y-67442561D02*
G75*
G02*
X121443535Y-67440000I1061J1061D01*
G01*
X127796893Y-68236901D02*
G75*
G03*
X125873020Y-67440000I-1923893J-1923899D01*
G01*
X121444985Y-73335865D02*
G75*
G02*
X120837500Y-74802500I-2074085J-35D01*
G01*
X120837490Y-74802490D02*
G75*
G03*
X120230000Y-76269134I1466610J-1466610D01*
G01*
X121444985Y-67448535D02*
G75*
G03*
X121442500Y-67442500I-8485J35D01*
G01*
X132047149Y-68855021D02*
G75*
G03*
X131087500Y-69252500I-49J-1357079D01*
G01*
%TO.N,Net-(D1-Pad2)*%
X129190000Y-67970000D02*
X130667570Y-67970000D01*
X130812427Y-67909998D02*
X135589998Y-67909998D01*
X122770000Y-73178597D02*
X122770000Y-78735000D01*
X122491054Y-72505163D02*
X122212109Y-72226218D01*
X122769995Y-73178597D02*
G75*
G03*
X122491053Y-72505164I-952395J-3D01*
G01*
%TO.N,Net-(J1-PadA)*%
X136000000Y-70682000D02*
X133102000Y-70682000D01*
%TO.N,Net-(ISOLATOR1-Pad5)*%
X132762231Y-76340000D02*
X133860000Y-76340000D01*
X125310000Y-71148786D02*
X125310000Y-69205000D01*
X133860000Y-76340000D02*
X133860000Y-76990000D01*
X125340000Y-71200000D02*
X125325000Y-71185000D01*
X112140000Y-70878664D02*
X112140000Y-69371040D01*
X132305070Y-76607799D02*
X132438969Y-76473899D01*
X113181335Y-71920000D02*
X114850000Y-71920000D01*
X112990000Y-67318959D02*
X112990000Y-66000000D01*
X112444990Y-71615010D02*
G75*
G02*
X112140000Y-70878664I736310J736310D01*
G01*
X132762231Y-76340033D02*
G75*
G03*
X132438969Y-76473899I-31J-457167D01*
G01*
X112564988Y-68344988D02*
G75*
G03*
X112140000Y-69371040I1026012J-1026012D01*
G01*
X125324996Y-71185004D02*
G75*
G02*
X125310000Y-71148786I36204J36204D01*
G01*
X112444990Y-71615010D02*
G75*
G03*
X113181335Y-71920000I736310J736310D01*
G01*
X112565012Y-68345012D02*
G75*
G03*
X112990000Y-67318959I-1026012J1026012D01*
G01*
%TO.N,Net-(ISOLATOR1-Pad6)*%
X122770000Y-70117500D02*
X122770000Y-69205000D01*
X125926981Y-73060000D02*
X131840000Y-73060000D01*
X123415234Y-71675234D02*
X124003103Y-72263103D01*
X130295000Y-74170000D02*
X129860000Y-74170000D01*
X131840000Y-73060000D02*
X131037591Y-73862408D01*
X124003107Y-72263099D02*
G75*
G03*
X125926981Y-73060000I1923893J1923899D01*
G01*
X122770009Y-70117500D02*
G75*
G03*
X123415234Y-71675234I2202991J0D01*
G01*
X131037595Y-73862412D02*
G75*
G02*
X130295000Y-74170000I-742595J742612D01*
G01*
%TO.N,Net-(ISOLATOR1-Pad7)*%
X120230000Y-68164558D02*
X120230000Y-69205000D01*
X115652340Y-67550000D02*
X119615441Y-67550000D01*
X119615441Y-67549983D02*
G75*
G02*
X120050000Y-67730000I-41J-614617D01*
G01*
X120230017Y-68164558D02*
G75*
G03*
X120050000Y-67730000I-614617J-42D01*
G01*
X115084988Y-67784988D02*
G75*
G02*
X115652340Y-67550000I567312J-567312D01*
G01*
X114850017Y-68352340D02*
G75*
G02*
X115085000Y-67785000I802283J40D01*
G01*
%TO.N,Net-(ISOLATOR1-Pad8)*%
X117690000Y-72095000D02*
X117690000Y-71220000D01*
X112070000Y-78970000D02*
X112080000Y-78980000D01*
X112060000Y-77675154D02*
X112060000Y-78945857D01*
X112045857Y-78960000D02*
X110535000Y-78960000D01*
X135730000Y-73000000D02*
X133942426Y-73000000D01*
X133860000Y-75040000D02*
X133860000Y-73080000D01*
X117690000Y-71220000D02*
X117690000Y-69205000D01*
X117071281Y-73588718D02*
X117034999Y-73624999D01*
X132472607Y-75402392D02*
X129279714Y-78595285D01*
X115453690Y-74280000D02*
X115354086Y-74280000D01*
X113602742Y-75005430D02*
X112856896Y-75751276D01*
X115354086Y-74279998D02*
G75*
G03*
X113602743Y-75005431I14J-2476802D01*
G01*
X117690010Y-72095000D02*
G75*
G02*
X117071281Y-73588718I-2112410J0D01*
G01*
X128447500Y-78940007D02*
G75*
G03*
X129279713Y-78595284I0J1176907D01*
G01*
X133347500Y-75040004D02*
G75*
G03*
X132472607Y-75402392I0J-1237296D01*
G01*
X117035003Y-73625003D02*
G75*
G02*
X115453690Y-74280000I-1581303J1581303D01*
G01*
X112856914Y-75751294D02*
G75*
G03*
X112060000Y-77675154I1923886J-1923906D01*
G01*
%TO.N,Net-(MCP42010-Pad1)*%
X135850000Y-80930000D02*
X133860000Y-78940000D01*
%TO.N,Net-(MCP42010-Pad2)*%
X132270000Y-78290000D02*
X133860000Y-78290000D01*
%TO.N,Net-(MCP42010-Pad3)*%
X131678406Y-79608406D02*
X133310000Y-81240000D01*
X131863093Y-77565000D02*
X133785000Y-77565000D01*
X131240000Y-78550000D02*
X131240000Y-78188093D01*
X131678409Y-79608403D02*
G75*
G02*
X131240000Y-78550000I1058391J1058403D01*
G01*
X131422502Y-77747502D02*
G75*
G02*
X131863093Y-77565000I440598J-440598D01*
G01*
X131239998Y-78188093D02*
G75*
G02*
X131422500Y-77747500I623102J-7D01*
G01*
%TO.N,Net-(MCP42010-Pad9)*%
X126200000Y-76160000D02*
X126587750Y-75925000D01*
X127428903Y-75690002D02*
G75*
G03*
X126587750Y-75925000I-3J-1622898D01*
G01*
%TO.N,Net-(MCP42010-Pad10)*%
X129128162Y-76340000D02*
X127988284Y-76340000D01*
X130431837Y-75800000D02*
X130960000Y-75800000D01*
X129128162Y-76339984D02*
G75*
G03*
X129780000Y-76070000I38J921784D01*
G01*
X130431837Y-75800016D02*
G75*
G03*
X129780000Y-76070000I-37J-921784D01*
G01*
%TD*%
%TA.AperFunction,Conductor*%
%TO.N,Net-(ISOLATOR1-Pad8)*%
G36*
X135561703Y-72645826D02*
G01*
X135921231Y-72991567D01*
X135924819Y-72999771D01*
X135921231Y-73008433D01*
X135561703Y-73354174D01*
X135553365Y-73357439D01*
X135548191Y-73356119D01*
X135485994Y-73323736D01*
X135485465Y-73323443D01*
X135476739Y-73318311D01*
X135426061Y-73288503D01*
X135425785Y-73288333D01*
X135373190Y-73255118D01*
X135373188Y-73255115D01*
X135373187Y-73255116D01*
X135324437Y-73224310D01*
X135324427Y-73224304D01*
X135324359Y-73224261D01*
X135276352Y-73196476D01*
X135276150Y-73196379D01*
X135276144Y-73196376D01*
X135226339Y-73172506D01*
X135226064Y-73172374D01*
X135170389Y-73152564D01*
X135144557Y-73146563D01*
X135106524Y-73137728D01*
X135106521Y-73137728D01*
X135106222Y-73137658D01*
X135105913Y-73137620D01*
X135105909Y-73137619D01*
X135061886Y-73132162D01*
X135030461Y-73128266D01*
X134974870Y-73126259D01*
X134951278Y-73125407D01*
X134943134Y-73121684D01*
X134940000Y-73113715D01*
X134940000Y-72886285D01*
X134943427Y-72878012D01*
X134951278Y-72874593D01*
X134984212Y-72873403D01*
X135030461Y-72871733D01*
X135061886Y-72867837D01*
X135105909Y-72862380D01*
X135105913Y-72862379D01*
X135106222Y-72862341D01*
X135106521Y-72862271D01*
X135106524Y-72862271D01*
X135170070Y-72847509D01*
X135170068Y-72847509D01*
X135170389Y-72847435D01*
X135226064Y-72827625D01*
X135245766Y-72818182D01*
X135276144Y-72803623D01*
X135276150Y-72803620D01*
X135276352Y-72803523D01*
X135324359Y-72775738D01*
X135373187Y-72744883D01*
X135425785Y-72711666D01*
X135426061Y-72711496D01*
X135485465Y-72676556D01*
X135485994Y-72676263D01*
X135493879Y-72672158D01*
X135548191Y-72643881D01*
X135557111Y-72643100D01*
X135561703Y-72645826D01*
G37*
%TD.AperFunction*%
%TD*%
%TA.AperFunction,Conductor*%
%TO.N,Net-(MCP42010-Pad3)*%
G36*
X132171820Y-79924230D02*
G01*
X132316976Y-80055073D01*
X132457918Y-80153185D01*
X132590233Y-80218798D01*
X132717764Y-80259579D01*
X132718115Y-80259644D01*
X132718117Y-80259645D01*
X132844153Y-80283159D01*
X132844156Y-80283159D01*
X132844352Y-80283196D01*
X132973837Y-80297319D01*
X133109872Y-80309599D01*
X133110255Y-80309640D01*
X133146505Y-80314119D01*
X133256470Y-80327706D01*
X133257263Y-80327833D01*
X133364952Y-80348972D01*
X133417561Y-80359300D01*
X133418611Y-80359557D01*
X133589354Y-80409812D01*
X133596322Y-80415435D01*
X133597748Y-80420805D01*
X133602191Y-80648117D01*
X133619580Y-81537653D01*
X133616315Y-81545992D01*
X133607653Y-81549580D01*
X133238586Y-81542366D01*
X132490806Y-81527748D01*
X132482603Y-81524160D01*
X132479812Y-81519354D01*
X132429557Y-81348611D01*
X132429300Y-81347561D01*
X132397835Y-81187276D01*
X132397704Y-81186457D01*
X132379640Y-81040255D01*
X132379599Y-81039872D01*
X132367319Y-80903837D01*
X132353218Y-80774558D01*
X132353196Y-80774352D01*
X132329579Y-80647764D01*
X132288798Y-80520233D01*
X132223185Y-80387918D01*
X132125073Y-80246976D01*
X131994230Y-80101820D01*
X131991236Y-80093381D01*
X131994647Y-80085714D01*
X132155714Y-79924647D01*
X132163987Y-79921220D01*
X132171820Y-79924230D01*
G37*
%TD.AperFunction*%
%TD*%
%TA.AperFunction,Conductor*%
%TO.N,Net-(JP2-Pad1)*%
G36*
X115652164Y-79497127D02*
G01*
X115655575Y-79504794D01*
X115665696Y-79699955D01*
X115695980Y-79868992D01*
X115743146Y-80008948D01*
X115804488Y-80127963D01*
X115877299Y-80234174D01*
X115958873Y-80335720D01*
X116015577Y-80403678D01*
X116046380Y-80440594D01*
X116046622Y-80440894D01*
X116137222Y-80557038D01*
X116137709Y-80557709D01*
X116228810Y-80693313D01*
X116229370Y-80694237D01*
X116314565Y-80850500D01*
X116315517Y-80859405D01*
X116312726Y-80864211D01*
X115538433Y-81669381D01*
X115530229Y-81672969D01*
X115521567Y-81669381D01*
X114747274Y-80864211D01*
X114744009Y-80855872D01*
X114745435Y-80850500D01*
X114830629Y-80694237D01*
X114831189Y-80693313D01*
X114922290Y-80557709D01*
X114922777Y-80557038D01*
X115013377Y-80440894D01*
X115013619Y-80440594D01*
X115044422Y-80403678D01*
X115101126Y-80335720D01*
X115182700Y-80234174D01*
X115255511Y-80127963D01*
X115316853Y-80008948D01*
X115364019Y-79868992D01*
X115394303Y-79699955D01*
X115404425Y-79504794D01*
X115408275Y-79496709D01*
X115416109Y-79493700D01*
X115643891Y-79493700D01*
X115652164Y-79497127D01*
G37*
%TD.AperFunction*%
%TD*%
%TA.AperFunction,Conductor*%
%TO.N,Net-(D1-Pad2)*%
G36*
X129371808Y-67613881D02*
G01*
X129426828Y-67642527D01*
X129434005Y-67646263D01*
X129434534Y-67646556D01*
X129493938Y-67681496D01*
X129494214Y-67681666D01*
X129546809Y-67714881D01*
X129546811Y-67714884D01*
X129546812Y-67714883D01*
X129595640Y-67745738D01*
X129643647Y-67773523D01*
X129643849Y-67773620D01*
X129643855Y-67773623D01*
X129674233Y-67788182D01*
X129693935Y-67797625D01*
X129749610Y-67817435D01*
X129749931Y-67817509D01*
X129749929Y-67817509D01*
X129813475Y-67832271D01*
X129813478Y-67832271D01*
X129813777Y-67832341D01*
X129814086Y-67832379D01*
X129814090Y-67832380D01*
X129858113Y-67837837D01*
X129889538Y-67841733D01*
X129936068Y-67843413D01*
X129968722Y-67844593D01*
X129976866Y-67848316D01*
X129980000Y-67856285D01*
X129980000Y-68083715D01*
X129976573Y-68091988D01*
X129968722Y-68095407D01*
X129945541Y-68096244D01*
X129889538Y-68098266D01*
X129858113Y-68102162D01*
X129814090Y-68107619D01*
X129814086Y-68107620D01*
X129813777Y-68107658D01*
X129813478Y-68107728D01*
X129813475Y-68107728D01*
X129775442Y-68116563D01*
X129749610Y-68122564D01*
X129693935Y-68142374D01*
X129693660Y-68142506D01*
X129643855Y-68166376D01*
X129643849Y-68166379D01*
X129643647Y-68166476D01*
X129595640Y-68194261D01*
X129546812Y-68225116D01*
X129494214Y-68258333D01*
X129493938Y-68258503D01*
X129443260Y-68288311D01*
X129434534Y-68293443D01*
X129434005Y-68293736D01*
X129371809Y-68326119D01*
X129362889Y-68326900D01*
X129358298Y-68324175D01*
X128998769Y-67978433D01*
X128995181Y-67970229D01*
X128998769Y-67961567D01*
X129358297Y-67615826D01*
X129366636Y-67612561D01*
X129371808Y-67613881D01*
G37*
%TD.AperFunction*%
%TD*%
%TA.AperFunction,Conductor*%
%TO.N,Net-(MCP42010-Pad1)*%
G36*
X134881529Y-79784005D02*
G01*
X134989780Y-79882463D01*
X134991636Y-79884618D01*
X135012075Y-79915205D01*
X135015848Y-79920852D01*
X135082169Y-79965167D01*
X135092359Y-79967194D01*
X135096945Y-79969198D01*
X135189674Y-80036502D01*
X135330443Y-80114447D01*
X135330759Y-80114577D01*
X135330764Y-80114579D01*
X135431502Y-80155891D01*
X135464520Y-80169431D01*
X135464759Y-80169505D01*
X135464766Y-80169508D01*
X135534343Y-80191181D01*
X135595598Y-80210262D01*
X135727310Y-80245730D01*
X135727485Y-80245779D01*
X135863180Y-80284590D01*
X135863878Y-80284813D01*
X136007283Y-80335728D01*
X136008287Y-80336138D01*
X136163285Y-80407951D01*
X136164354Y-80408516D01*
X136327961Y-80505985D01*
X136333315Y-80513163D01*
X136333357Y-80518738D01*
X136075361Y-81605582D01*
X136070116Y-81612840D01*
X136060832Y-81614149D01*
X134984841Y-81313856D01*
X134977793Y-81308332D01*
X134976295Y-81303043D01*
X134969884Y-81138855D01*
X134969882Y-81137986D01*
X134975347Y-80983189D01*
X134975378Y-80982663D01*
X134986728Y-80841644D01*
X134986744Y-80841612D01*
X134986731Y-80841611D01*
X134997615Y-80711069D01*
X134997616Y-80711056D01*
X134997627Y-80710921D01*
X135001678Y-80587353D01*
X134996440Y-80518738D01*
X134992556Y-80467856D01*
X134992555Y-80467852D01*
X134992520Y-80467389D01*
X134963788Y-80347515D01*
X134909116Y-80224215D01*
X134822141Y-80093973D01*
X134708927Y-79967193D01*
X134703862Y-79961521D01*
X134700908Y-79953068D01*
X134704316Y-79945455D01*
X134865384Y-79784387D01*
X134873657Y-79780960D01*
X134881529Y-79784005D01*
G37*
%TD.AperFunction*%
%TD*%
%TA.AperFunction,Conductor*%
%TO.N,Net-(JP1-Pad1)*%
G36*
X108096678Y-79356111D02*
G01*
X108277184Y-79494451D01*
X108281666Y-79502203D01*
X108279963Y-79509979D01*
X108185008Y-79660517D01*
X108136718Y-79804123D01*
X108136693Y-79804990D01*
X108136693Y-79804992D01*
X108133008Y-79934915D01*
X108132984Y-79935763D01*
X108165999Y-80059435D01*
X108198508Y-80122242D01*
X108227782Y-80178800D01*
X108227786Y-80178807D01*
X108227957Y-80179137D01*
X108311052Y-80298867D01*
X108407477Y-80422623D01*
X108509252Y-80554178D01*
X108509587Y-80554635D01*
X108608777Y-80697751D01*
X108609363Y-80698690D01*
X108694426Y-80850458D01*
X108695482Y-80859349D01*
X108692653Y-80864287D01*
X107919753Y-81668008D01*
X107911549Y-81671596D01*
X107903210Y-81668331D01*
X107901808Y-81666710D01*
X107219424Y-80713855D01*
X107217393Y-80705134D01*
X107219516Y-80700104D01*
X107221250Y-80697751D01*
X107331052Y-80548697D01*
X107347993Y-80523576D01*
X107424593Y-80409990D01*
X107424595Y-80409987D01*
X107424659Y-80409892D01*
X107466571Y-80341802D01*
X107501420Y-80285188D01*
X107501429Y-80285173D01*
X107501467Y-80285111D01*
X107567650Y-80168931D01*
X107629378Y-80055931D01*
X107692761Y-79940806D01*
X107692891Y-79940576D01*
X107764062Y-79817956D01*
X107764273Y-79817607D01*
X107849435Y-79681995D01*
X107849685Y-79681613D01*
X107955067Y-79527483D01*
X107955320Y-79527127D01*
X108080156Y-79358437D01*
X108087832Y-79353825D01*
X108096678Y-79356111D01*
G37*
%TD.AperFunction*%
%TD*%
%TA.AperFunction,Conductor*%
%TO.N,Net-(ISOLATOR1-Pad5)*%
G36*
X125431992Y-70402213D02*
G01*
X125435411Y-70410060D01*
X125438260Y-70488183D01*
X125438292Y-70488441D01*
X125438293Y-70488447D01*
X125438896Y-70493224D01*
X125447707Y-70563108D01*
X125447780Y-70563413D01*
X125462762Y-70626209D01*
X125462765Y-70626217D01*
X125462842Y-70626542D01*
X125483163Y-70681468D01*
X125483313Y-70681764D01*
X125483315Y-70681769D01*
X125508056Y-70730642D01*
X125508062Y-70730652D01*
X125508170Y-70730866D01*
X125508301Y-70731076D01*
X125508302Y-70731078D01*
X125521699Y-70752577D01*
X125537364Y-70777717D01*
X125537438Y-70777823D01*
X125537441Y-70777828D01*
X125555385Y-70803634D01*
X125570243Y-70825003D01*
X125592308Y-70856022D01*
X125606241Y-70875610D01*
X125606388Y-70875822D01*
X125644906Y-70932582D01*
X125645188Y-70933017D01*
X125681602Y-70992152D01*
X125683022Y-71000994D01*
X125680653Y-71005745D01*
X125362668Y-71390069D01*
X125354754Y-71394259D01*
X125345849Y-71391327D01*
X124974259Y-71058576D01*
X124970382Y-71050504D01*
X124971310Y-71045252D01*
X125000256Y-70977700D01*
X125000511Y-70977144D01*
X125032050Y-70913026D01*
X125032238Y-70912661D01*
X125062574Y-70856090D01*
X125062610Y-70856022D01*
X125091116Y-70803691D01*
X125091117Y-70803689D01*
X125091147Y-70803634D01*
X125117093Y-70752407D01*
X125139791Y-70699058D01*
X125158586Y-70640304D01*
X125172823Y-70572862D01*
X125172852Y-70572605D01*
X125172854Y-70572594D01*
X125181820Y-70493683D01*
X125181821Y-70493671D01*
X125181846Y-70493450D01*
X125182022Y-70488183D01*
X125184623Y-70410096D01*
X125188324Y-70401942D01*
X125196317Y-70398786D01*
X125423719Y-70398786D01*
X125431992Y-70402213D01*
G37*
%TD.AperFunction*%
%TD*%
%TA.AperFunction,Conductor*%
%TO.N,Net-(J1-PadA)*%
G36*
X135624211Y-69899274D02*
G01*
X136319718Y-70568109D01*
X136429381Y-70673567D01*
X136432969Y-70681771D01*
X136429381Y-70690433D01*
X135992236Y-71110814D01*
X135624211Y-71464726D01*
X135615872Y-71467991D01*
X135610501Y-71466565D01*
X135454232Y-71381367D01*
X135453313Y-71380810D01*
X135317709Y-71289709D01*
X135317038Y-71289222D01*
X135200894Y-71198622D01*
X135200594Y-71198380D01*
X135163678Y-71167577D01*
X135095720Y-71110873D01*
X134994174Y-71029299D01*
X134887963Y-70956488D01*
X134887639Y-70956321D01*
X134769335Y-70895345D01*
X134769330Y-70895343D01*
X134768948Y-70895146D01*
X134628992Y-70847980D01*
X134616858Y-70845806D01*
X134460315Y-70817760D01*
X134460307Y-70817759D01*
X134459955Y-70817696D01*
X134386779Y-70813901D01*
X134264794Y-70807575D01*
X134256709Y-70803725D01*
X134253700Y-70795891D01*
X134253700Y-70568109D01*
X134257127Y-70559836D01*
X134264794Y-70556425D01*
X134393414Y-70549754D01*
X134459955Y-70546303D01*
X134460307Y-70546240D01*
X134460315Y-70546239D01*
X134628562Y-70516096D01*
X134628992Y-70516019D01*
X134768948Y-70468853D01*
X134769330Y-70468656D01*
X134769335Y-70468654D01*
X134887639Y-70407678D01*
X134887963Y-70407511D01*
X134994174Y-70334700D01*
X135095720Y-70253126D01*
X135200594Y-70165619D01*
X135200894Y-70165377D01*
X135317038Y-70074777D01*
X135317709Y-70074290D01*
X135453313Y-69983189D01*
X135454232Y-69982632D01*
X135610501Y-69897435D01*
X135619405Y-69896483D01*
X135624211Y-69899274D01*
G37*
%TD.AperFunction*%
%TD*%
%TA.AperFunction,Conductor*%
%TO.N,Net-(ISOLATOR1-Pad8)*%
G36*
X118044174Y-71388297D02*
G01*
X118047439Y-71396635D01*
X118046119Y-71401809D01*
X118013736Y-71464005D01*
X118013443Y-71464534D01*
X117978513Y-71523921D01*
X117978320Y-71524236D01*
X117945118Y-71576809D01*
X117945115Y-71576811D01*
X117945116Y-71576812D01*
X117914261Y-71625640D01*
X117886476Y-71673647D01*
X117862374Y-71723935D01*
X117842564Y-71779610D01*
X117827658Y-71843777D01*
X117818266Y-71919538D01*
X117818257Y-71919799D01*
X117815407Y-71998722D01*
X117811684Y-72006866D01*
X117803715Y-72010000D01*
X117576285Y-72010000D01*
X117568012Y-72006573D01*
X117564593Y-71998722D01*
X117561742Y-71919799D01*
X117561733Y-71919538D01*
X117552341Y-71843777D01*
X117537435Y-71779610D01*
X117517625Y-71723935D01*
X117493523Y-71673647D01*
X117465738Y-71625640D01*
X117434883Y-71576812D01*
X117401666Y-71524214D01*
X117401486Y-71523921D01*
X117366556Y-71464534D01*
X117366263Y-71464005D01*
X117333881Y-71401810D01*
X117333100Y-71392889D01*
X117335826Y-71388297D01*
X117496055Y-71221679D01*
X117496055Y-71221678D01*
X117690000Y-71020000D01*
X118044174Y-71388297D01*
G37*
%TD.AperFunction*%
%TD*%
%TA.AperFunction,Conductor*%
%TO.N,Net-(ISOLATOR1-Pad6)*%
G36*
X130041855Y-73814019D02*
G01*
X130080817Y-73834894D01*
X130101727Y-73846097D01*
X130102393Y-73846483D01*
X130161802Y-73883543D01*
X130162112Y-73883743D01*
X130216322Y-73920040D01*
X130267529Y-73953481D01*
X130267706Y-73953581D01*
X130312171Y-73978698D01*
X130317901Y-73981935D01*
X130369773Y-74003382D01*
X130370259Y-74003490D01*
X130370261Y-74003491D01*
X130379514Y-74005554D01*
X130425477Y-74015802D01*
X130426052Y-74015815D01*
X130426054Y-74015815D01*
X130486807Y-74017162D01*
X130487349Y-74017174D01*
X130524474Y-74011005D01*
X130557279Y-74005554D01*
X130557284Y-74005553D01*
X130557722Y-74005480D01*
X130628491Y-73982141D01*
X130637421Y-73982804D01*
X130643017Y-73988903D01*
X130727533Y-74199964D01*
X130727427Y-74208918D01*
X130721063Y-74215157D01*
X130633777Y-74250509D01*
X130550915Y-74285015D01*
X130479932Y-74315608D01*
X130417478Y-74343595D01*
X130360205Y-74370283D01*
X130360171Y-74370299D01*
X130329347Y-74385143D01*
X130304765Y-74396980D01*
X130247808Y-74424992D01*
X130186003Y-74455619D01*
X130185986Y-74455628D01*
X130115951Y-74490195D01*
X130115903Y-74490218D01*
X130084823Y-74505380D01*
X130041702Y-74526416D01*
X130032765Y-74526964D01*
X130028463Y-74524334D01*
X129925160Y-74424992D01*
X129668769Y-74178433D01*
X129665181Y-74170229D01*
X129668769Y-74161567D01*
X129855419Y-73982075D01*
X129957786Y-73883633D01*
X130028221Y-73815899D01*
X130036560Y-73812634D01*
X130041855Y-73814019D01*
G37*
%TD.AperFunction*%
%TD*%
%TA.AperFunction,Conductor*%
%TO.N,Net-(ISOLATOR1-Pad8)*%
G36*
X117811988Y-70433427D02*
G01*
X117815407Y-70441278D01*
X117818266Y-70520461D01*
X117827658Y-70596222D01*
X117842564Y-70660389D01*
X117862374Y-70716064D01*
X117886476Y-70766352D01*
X117914261Y-70814359D01*
X117914304Y-70814427D01*
X117914310Y-70814437D01*
X117945116Y-70863187D01*
X117945118Y-70863190D01*
X117978320Y-70915763D01*
X117978513Y-70916078D01*
X118013443Y-70975465D01*
X118013736Y-70975994D01*
X118046119Y-71038191D01*
X118046900Y-71047112D01*
X118044175Y-71051702D01*
X117690000Y-71420000D01*
X117335826Y-71051703D01*
X117332561Y-71043364D01*
X117333881Y-71038190D01*
X117366263Y-70975994D01*
X117366556Y-70975465D01*
X117401486Y-70916078D01*
X117401679Y-70915763D01*
X117434881Y-70863190D01*
X117434884Y-70863188D01*
X117434883Y-70863187D01*
X117465689Y-70814437D01*
X117465695Y-70814427D01*
X117465738Y-70814359D01*
X117493523Y-70766352D01*
X117517625Y-70716064D01*
X117537435Y-70660389D01*
X117552341Y-70596222D01*
X117561733Y-70520461D01*
X117564593Y-70441278D01*
X117568316Y-70433134D01*
X117576285Y-70430000D01*
X117803715Y-70430000D01*
X117811988Y-70433427D01*
G37*
%TD.AperFunction*%
%TD*%
%TA.AperFunction,Conductor*%
%TO.N,Net-(ISOLATOR1-Pad5)*%
G36*
X132391170Y-76208000D02*
G01*
X132391229Y-76208000D01*
X132465313Y-76208547D01*
X132465371Y-76208548D01*
X132530737Y-76209354D01*
X132530783Y-76209355D01*
X132590894Y-76210333D01*
X132590918Y-76210333D01*
X132649271Y-76211399D01*
X132709213Y-76212465D01*
X132774160Y-76213444D01*
X132847528Y-76214251D01*
X132932732Y-76214798D01*
X133021515Y-76214977D01*
X133029781Y-76218421D01*
X133033191Y-76226677D01*
X133033191Y-76454070D01*
X133029764Y-76462343D01*
X133022287Y-76465743D01*
X132990627Y-76467899D01*
X132961319Y-76469894D01*
X132961315Y-76469895D01*
X132960825Y-76469928D01*
X132901988Y-76484125D01*
X132901451Y-76484380D01*
X132901447Y-76484381D01*
X132866084Y-76501149D01*
X132854366Y-76506705D01*
X132853865Y-76507094D01*
X132853862Y-76507096D01*
X132824537Y-76529879D01*
X132815647Y-76536785D01*
X132783519Y-76573480D01*
X132783292Y-76573826D01*
X132755794Y-76615716D01*
X132755786Y-76615729D01*
X132755670Y-76615906D01*
X132729786Y-76663179D01*
X132705052Y-76711493D01*
X132703586Y-76714356D01*
X132703501Y-76714518D01*
X132674807Y-76768466D01*
X132674513Y-76768986D01*
X132645156Y-76817980D01*
X132637964Y-76823315D01*
X132632559Y-76823382D01*
X132146754Y-76714344D01*
X132139432Y-76709188D01*
X132137900Y-76700366D01*
X132138237Y-76699166D01*
X132150429Y-76663259D01*
X132302368Y-76215757D01*
X132308273Y-76209025D01*
X132313474Y-76207819D01*
X132391170Y-76208000D01*
G37*
%TD.AperFunction*%
%TD*%
%TA.AperFunction,Conductor*%
%TO.N,Net-(ISOLATOR1-Pad5)*%
G36*
X112997132Y-65571313D02*
G01*
X112998286Y-65572600D01*
X113706260Y-66491067D01*
X113708596Y-66499711D01*
X113706821Y-66504556D01*
X113584156Y-66694461D01*
X113487264Y-66868950D01*
X113487187Y-66869114D01*
X113487180Y-66869127D01*
X113464590Y-66917047D01*
X113412586Y-67027363D01*
X113352079Y-67175984D01*
X113352062Y-67176029D01*
X113352055Y-67176047D01*
X113297722Y-67321041D01*
X113297701Y-67321097D01*
X113241480Y-67468795D01*
X113241324Y-67469183D01*
X113175290Y-67625620D01*
X113175022Y-67626210D01*
X113091067Y-67797896D01*
X113090726Y-67798540D01*
X112980797Y-67991816D01*
X112980439Y-67992404D01*
X112842804Y-68203868D01*
X112835419Y-68208933D01*
X112826354Y-68207117D01*
X112639359Y-68078112D01*
X112634495Y-68070593D01*
X112635874Y-68062625D01*
X112747816Y-67868990D01*
X112771418Y-67797896D01*
X112807936Y-67687892D01*
X112808169Y-67687190D01*
X112819545Y-67521465D01*
X112789960Y-67366702D01*
X112727434Y-67217786D01*
X112727238Y-67217453D01*
X112727234Y-67217446D01*
X112640095Y-67069792D01*
X112640092Y-67069787D01*
X112639985Y-67069606D01*
X112535632Y-66917047D01*
X112422499Y-66755148D01*
X112422295Y-66754845D01*
X112364592Y-66665512D01*
X112308525Y-66578711D01*
X112308078Y-66577959D01*
X112205430Y-66389497D01*
X112204482Y-66380593D01*
X112207272Y-66375791D01*
X112980589Y-65571636D01*
X112988793Y-65568048D01*
X112997132Y-65571313D01*
G37*
%TD.AperFunction*%
%TD*%
%TA.AperFunction,Conductor*%
%TO.N,Net-(D1-Pad2)*%
G36*
X135999788Y-67447140D02*
G01*
X136002921Y-67451835D01*
X136331055Y-68365724D01*
X136383624Y-68512136D01*
X136383194Y-68521081D01*
X136375867Y-68527328D01*
X136171439Y-68586533D01*
X135303065Y-68838026D01*
X135294165Y-68837036D01*
X135290160Y-68833404D01*
X135205868Y-68710450D01*
X135205528Y-68709924D01*
X135130368Y-68586636D01*
X135130247Y-68586433D01*
X135063113Y-68471125D01*
X135063089Y-68471083D01*
X134998358Y-68365538D01*
X134930427Y-68271589D01*
X134853606Y-68190927D01*
X134819420Y-68166360D01*
X134762709Y-68125604D01*
X134762705Y-68125602D01*
X134762210Y-68125246D01*
X134650551Y-68076236D01*
X134512943Y-68045589D01*
X134512487Y-68045560D01*
X134512484Y-68045560D01*
X134354667Y-68035684D01*
X134346624Y-68031747D01*
X134343698Y-68024007D01*
X134343698Y-67796225D01*
X134347125Y-67787952D01*
X134354915Y-67784535D01*
X134553029Y-67776363D01*
X134575110Y-67775452D01*
X134575111Y-67775452D01*
X134575376Y-67775441D01*
X134694121Y-67759529D01*
X134768649Y-67749542D01*
X134768652Y-67749541D01*
X134768939Y-67749503D01*
X134868944Y-67726227D01*
X134932929Y-67711335D01*
X134932935Y-67711333D01*
X134933177Y-67711277D01*
X134933404Y-67711204D01*
X134933410Y-67711202D01*
X135076742Y-67664905D01*
X135076744Y-67664904D01*
X135076878Y-67664861D01*
X135077002Y-67664813D01*
X135077012Y-67664810D01*
X135208832Y-67614349D01*
X135337580Y-67563933D01*
X135338037Y-67563764D01*
X135472209Y-67517573D01*
X135473119Y-67517301D01*
X135561190Y-67494773D01*
X135621531Y-67479339D01*
X135622682Y-67479106D01*
X135794359Y-67453345D01*
X135795544Y-67453228D01*
X135991365Y-67444102D01*
X135999788Y-67447140D01*
G37*
%TD.AperFunction*%
%TD*%
%TA.AperFunction,Conductor*%
%TO.N,Net-(MCP42010-Pad10)*%
G36*
X130791450Y-75445582D02*
G01*
X131151231Y-75791567D01*
X131154819Y-75799771D01*
X131151231Y-75808433D01*
X130978799Y-75974253D01*
X130791743Y-76154136D01*
X130783404Y-76157401D01*
X130778167Y-76156048D01*
X130709192Y-76119601D01*
X130708644Y-76119292D01*
X130640418Y-76078409D01*
X130640284Y-76078327D01*
X130577547Y-76038983D01*
X130577475Y-76038940D01*
X130518259Y-76003632D01*
X130518248Y-76003626D01*
X130518087Y-76003530D01*
X130459569Y-75974253D01*
X130459230Y-75974135D01*
X130459225Y-75974133D01*
X130400067Y-75953557D01*
X130400063Y-75953556D01*
X130399583Y-75953389D01*
X130399078Y-75953308D01*
X130399073Y-75953307D01*
X130364912Y-75947845D01*
X130335723Y-75943178D01*
X130335144Y-75943200D01*
X130335142Y-75943200D01*
X130266124Y-75945837D01*
X130266121Y-75945837D01*
X130265581Y-75945858D01*
X130234614Y-75952855D01*
X130187181Y-75963571D01*
X130187176Y-75963572D01*
X130186749Y-75963669D01*
X130107070Y-75994840D01*
X130098118Y-75994663D01*
X130092193Y-75988864D01*
X129996682Y-75782731D01*
X129996313Y-75773784D01*
X130002476Y-75767152D01*
X130056901Y-75742533D01*
X130099811Y-75723123D01*
X130099977Y-75723050D01*
X130192341Y-75683449D01*
X130192503Y-75683381D01*
X130236572Y-75665517D01*
X130272727Y-75650861D01*
X130272911Y-75650788D01*
X130344480Y-75623178D01*
X130344588Y-75623137D01*
X130410987Y-75598275D01*
X130475660Y-75574010D01*
X130542006Y-75548206D01*
X130613481Y-75518708D01*
X130693541Y-75483358D01*
X130693557Y-75483351D01*
X130693576Y-75483342D01*
X130773785Y-75445583D01*
X130778359Y-75443430D01*
X130787303Y-75443007D01*
X130791450Y-75445582D01*
G37*
%TD.AperFunction*%
%TD*%
%TA.AperFunction,Conductor*%
%TO.N,Net-(D1-Pad2)*%
G36*
X122582442Y-72096696D02*
G01*
X122590628Y-72100326D01*
X122593241Y-72104657D01*
X122618812Y-72180558D01*
X122642428Y-72252711D01*
X122662817Y-72316596D01*
X122681321Y-72375448D01*
X122699279Y-72432507D01*
X122718035Y-72491010D01*
X122738929Y-72554195D01*
X122738948Y-72554250D01*
X122763293Y-72625270D01*
X122763303Y-72625299D01*
X122792497Y-72707557D01*
X122792498Y-72707561D01*
X122823853Y-72793275D01*
X122823477Y-72802221D01*
X122816932Y-72808264D01*
X122603679Y-72887292D01*
X122594730Y-72886953D01*
X122588947Y-72881129D01*
X122588083Y-72879212D01*
X122560552Y-72818134D01*
X122523392Y-72763086D01*
X122482013Y-72722910D01*
X122481482Y-72722580D01*
X122481480Y-72722578D01*
X122436923Y-72694856D01*
X122436470Y-72694574D01*
X122386819Y-72675046D01*
X122333115Y-72661293D01*
X122332959Y-72661263D01*
X122332949Y-72661261D01*
X122275415Y-72650283D01*
X122213994Y-72639022D01*
X122213556Y-72638933D01*
X122148674Y-72624454D01*
X122147835Y-72624234D01*
X122127508Y-72618086D01*
X122087082Y-72605859D01*
X122080155Y-72600184D01*
X122078770Y-72594828D01*
X122071594Y-72096235D01*
X122074902Y-72087914D01*
X122083582Y-72084371D01*
X122582442Y-72096696D01*
G37*
%TD.AperFunction*%
%TD*%
%TA.AperFunction,Conductor*%
%TO.N,Net-(MCP42010-Pad9)*%
G36*
X126912860Y-75646458D02*
G01*
X126918449Y-75653294D01*
X126985270Y-75870551D01*
X126984427Y-75879466D01*
X126978078Y-75884989D01*
X126902054Y-75912580D01*
X126833135Y-75947601D01*
X126778631Y-75986412D01*
X126735387Y-76029171D01*
X126700248Y-76076035D01*
X126670058Y-76127165D01*
X126641664Y-76182718D01*
X126641643Y-76182761D01*
X126611979Y-76242710D01*
X126611846Y-76242971D01*
X126602232Y-76261171D01*
X126577793Y-76307434D01*
X126577476Y-76307997D01*
X126540048Y-76370263D01*
X126532849Y-76375588D01*
X126527455Y-76375650D01*
X126040832Y-76266327D01*
X126033512Y-76261171D01*
X126032090Y-76251903D01*
X126160407Y-75769704D01*
X126165847Y-75762591D01*
X126170712Y-75761056D01*
X126252458Y-75754030D01*
X126252611Y-75754018D01*
X126330241Y-75748372D01*
X126330292Y-75748368D01*
X126399186Y-75743659D01*
X126462562Y-75738767D01*
X126462672Y-75738756D01*
X126462693Y-75738754D01*
X126523657Y-75732573D01*
X126523681Y-75732570D01*
X126523780Y-75732560D01*
X126557200Y-75727928D01*
X126586056Y-75723929D01*
X126586070Y-75723927D01*
X126586198Y-75723909D01*
X126653176Y-75711682D01*
X126728071Y-75694749D01*
X126728146Y-75694729D01*
X126728155Y-75694727D01*
X126755659Y-75687459D01*
X126814242Y-75671978D01*
X126900748Y-75646458D01*
X126903955Y-75645512D01*
X126912860Y-75646458D01*
G37*
%TD.AperFunction*%
%TD*%
%TA.AperFunction,Conductor*%
%TO.N,Net-(MCP42010-Pad2)*%
G36*
X132451808Y-77933881D02*
G01*
X132506828Y-77962526D01*
X132514005Y-77966263D01*
X132514534Y-77966556D01*
X132573938Y-78001496D01*
X132574214Y-78001666D01*
X132626809Y-78034881D01*
X132626811Y-78034884D01*
X132626812Y-78034883D01*
X132675640Y-78065738D01*
X132723647Y-78093523D01*
X132723849Y-78093620D01*
X132723855Y-78093623D01*
X132754233Y-78108182D01*
X132773935Y-78117625D01*
X132829610Y-78137435D01*
X132829931Y-78137509D01*
X132829929Y-78137509D01*
X132893475Y-78152271D01*
X132893478Y-78152271D01*
X132893777Y-78152341D01*
X132894086Y-78152379D01*
X132894090Y-78152380D01*
X132938113Y-78157837D01*
X132969538Y-78161733D01*
X133016068Y-78163413D01*
X133048722Y-78164593D01*
X133056866Y-78168316D01*
X133060000Y-78176285D01*
X133060000Y-78403715D01*
X133056573Y-78411988D01*
X133048722Y-78415407D01*
X133025541Y-78416244D01*
X132969538Y-78418266D01*
X132938113Y-78422162D01*
X132894090Y-78427619D01*
X132894086Y-78427620D01*
X132893777Y-78427658D01*
X132893478Y-78427728D01*
X132893475Y-78427728D01*
X132855442Y-78436563D01*
X132829610Y-78442564D01*
X132773935Y-78462374D01*
X132773660Y-78462506D01*
X132723855Y-78486376D01*
X132723849Y-78486379D01*
X132723647Y-78486476D01*
X132675640Y-78514261D01*
X132626812Y-78545116D01*
X132574214Y-78578333D01*
X132573938Y-78578503D01*
X132523260Y-78608311D01*
X132514534Y-78613443D01*
X132514005Y-78613736D01*
X132451809Y-78646119D01*
X132442889Y-78646900D01*
X132438298Y-78644175D01*
X132078769Y-78298433D01*
X132075181Y-78290229D01*
X132078769Y-78281567D01*
X132438297Y-77935826D01*
X132446636Y-77932561D01*
X132451808Y-77933881D01*
G37*
%TD.AperFunction*%
%TD*%
M02*
