M48
INCH
T1C0.0157
T2C0.0430
%
G90
G05
T1
X4.6335Y-2.8039
X4.8115Y-2.8436
X4.9346Y-2.8031
X4.9685Y-2.9984
X5.0862Y-2.676
X5.1126Y-2.9201
X5.1559Y-2.9843
X5.2075Y-3.0823
X5.2089Y-3.0161
X5.3437Y-2.874
T2
X4.2484Y-2.5984
X4.2484Y-3.1984
X4.3484Y-2.5984
X4.3484Y-3.1984
X4.4484Y-2.5984
X4.4484Y-3.1984
X4.5484Y-2.5984
X4.5484Y-3.1984
X4.6484Y-2.5984
X4.6484Y-3.1984
X4.7484Y-2.5984
X4.7484Y-3.1984
X4.8484Y-2.5984
X4.8484Y-3.1984
X4.9484Y-2.5984
X4.9484Y-3.1984
X5.0484Y-2.5984
X5.0484Y-3.1984
X5.1484Y-2.5984
X5.1484Y-3.1984
X5.2484Y-2.5984
X5.2484Y-3.1984
X5.3484Y-2.5984
X5.3484Y-3.1984
X5.3543Y-2.6898
X5.3543Y-2.7828
X5.3543Y-3.0145
X5.3543Y-3.1063
T0
M30
