%TF.GenerationSoftware,KiCad,Pcbnew,(6.0.9)*%
%TF.CreationDate,2022-11-13T21:00:24-06:00*%
%TF.ProjectId,melodyous-micro,6d656c6f-6479-46f7-9573-2d6d6963726f,rev?*%
%TF.SameCoordinates,Original*%
%TF.FileFunction,Soldermask,Top*%
%TF.FilePolarity,Negative*%
%FSLAX46Y46*%
G04 Gerber Fmt 4.6, Leading zero omitted, Abs format (unit mm)*
G04 Created by KiCad (PCBNEW (6.0.9)) date 2022-11-13 21:00:24*
%MOMM*%
%LPD*%
G01*
G04 APERTURE LIST*
G04 Aperture macros list*
%AMRoundRect*
0 Rectangle with rounded corners*
0 $1 Rounding radius*
0 $2 $3 $4 $5 $6 $7 $8 $9 X,Y pos of 4 corners*
0 Add a 4 corners polygon primitive as box body*
4,1,4,$2,$3,$4,$5,$6,$7,$8,$9,$2,$3,0*
0 Add four circle primitives for the rounded corners*
1,1,$1+$1,$2,$3*
1,1,$1+$1,$4,$5*
1,1,$1+$1,$6,$7*
1,1,$1+$1,$8,$9*
0 Add four rect primitives between the rounded corners*
20,1,$1+$1,$2,$3,$4,$5,0*
20,1,$1+$1,$4,$5,$6,$7,0*
20,1,$1+$1,$6,$7,$8,$9,0*
20,1,$1+$1,$8,$9,$2,$3,0*%
%AMFreePoly0*
4,1,6,0.500000,-0.750000,-0.650000,-0.750000,-0.150000,0.000000,-0.650000,0.750000,0.500000,0.750000,0.500000,-0.750000,0.500000,-0.750000,$1*%
%AMFreePoly1*
4,1,6,1.000000,0.000000,0.500000,-0.750000,-0.500000,-0.750000,-0.500000,0.750000,0.500000,0.750000,1.000000,0.000000,1.000000,0.000000,$1*%
%AMFreePoly2*
4,1,17,0.377620,0.861655,0.861655,0.377620,0.876300,0.342265,0.876300,-0.342265,0.861655,-0.377620,0.377620,-0.861655,0.342265,-0.876300,-0.342265,-0.876300,-0.377620,-0.861655,-0.861655,-0.377620,-0.876300,-0.342265,-0.876300,0.342265,-0.861655,0.377620,-0.377620,0.861655,-0.342265,0.876300,0.342265,0.876300,0.377620,0.861655,0.377620,0.861655,$1*%
G04 Aperture macros list end*
%ADD10R,1.200000X0.900000*%
%ADD11R,1.450000X0.450000*%
%ADD12RoundRect,0.250000X-0.350000X-0.450000X0.350000X-0.450000X0.350000X0.450000X-0.350000X0.450000X0*%
%ADD13R,1.780000X2.000000*%
%ADD14FreePoly0,180.000000*%
%ADD15FreePoly1,180.000000*%
%ADD16RoundRect,0.250000X-0.625000X0.400000X-0.625000X-0.400000X0.625000X-0.400000X0.625000X0.400000X0*%
%ADD17FreePoly0,0.000000*%
%ADD18FreePoly1,0.000000*%
%ADD19RoundRect,0.250000X0.450000X-0.262500X0.450000X0.262500X-0.450000X0.262500X-0.450000X-0.262500X0*%
%ADD20R,3.000000X1.752600*%
%ADD21O,3.000000X1.752600*%
%ADD22O,1.752600X3.000000*%
%ADD23R,1.752600X3.000000*%
%ADD24FreePoly2,0.000000*%
G04 APERTURE END LIST*
%TO.C,G\u002A\u002A\u002A*%
G36*
X112508287Y-72402361D02*
G01*
X112565954Y-72278243D01*
X112636667Y-72243611D01*
X112727941Y-72303670D01*
X112765046Y-72402361D01*
X112751994Y-72526193D01*
X112642981Y-72561074D01*
X112636667Y-72561111D01*
X112523515Y-72528884D01*
X112508858Y-72420000D01*
X112566111Y-72420000D01*
X112619802Y-72488505D01*
X112636667Y-72490556D01*
X112705172Y-72436864D01*
X112707222Y-72420000D01*
X112653531Y-72351495D01*
X112636667Y-72349444D01*
X112568161Y-72403135D01*
X112566111Y-72420000D01*
X112508858Y-72420000D01*
X112507378Y-72409009D01*
X112508287Y-72402361D01*
G37*
G36*
X112419719Y-72373569D02*
G01*
X112380329Y-72481339D01*
X112288920Y-72660248D01*
X112241925Y-72742543D01*
X112104012Y-72959223D01*
X111999408Y-73087134D01*
X111941045Y-73112270D01*
X111933355Y-73076803D01*
X111973681Y-72981711D01*
X112041222Y-72879984D01*
X112114957Y-72672458D01*
X112106464Y-72527206D01*
X112086379Y-72393965D01*
X112105984Y-72384278D01*
X112145970Y-72442562D01*
X112213644Y-72531409D01*
X112273294Y-72505246D01*
X112323184Y-72442562D01*
X112402276Y-72354716D01*
X112419719Y-72373569D01*
G37*
G36*
X110467083Y-74587202D02*
G01*
X110273055Y-74557810D01*
X110467083Y-74547238D01*
X110608048Y-74517360D01*
X110661111Y-74466111D01*
X110719286Y-74406810D01*
X110784583Y-74396636D01*
X110866286Y-74408288D01*
X110815737Y-74457272D01*
X110802222Y-74466111D01*
X110771538Y-74509766D01*
X110861130Y-74531344D01*
X110996250Y-74535586D01*
X111198769Y-74520991D01*
X111287148Y-74469663D01*
X111287968Y-74466111D01*
X111366667Y-74466111D01*
X111417306Y-74534647D01*
X111433058Y-74536667D01*
X111528614Y-74485380D01*
X111543055Y-74466111D01*
X111527060Y-74405708D01*
X111476664Y-74395556D01*
X111380129Y-74432393D01*
X111366667Y-74466111D01*
X111287968Y-74466111D01*
X111296111Y-74430833D01*
X111357445Y-74345714D01*
X111472500Y-74325000D01*
X111614365Y-74361800D01*
X111648889Y-74430833D01*
X111707711Y-74517023D01*
X111790000Y-74536667D01*
X111904650Y-74507120D01*
X111931111Y-74466111D01*
X111989286Y-74406810D01*
X112054583Y-74396636D01*
X112136065Y-74408284D01*
X112084482Y-74456790D01*
X112072530Y-74464427D01*
X112076833Y-74499436D01*
X112214910Y-74526841D01*
X112489655Y-74547076D01*
X112672253Y-74554414D01*
X113377500Y-74577689D01*
X112689583Y-74592456D01*
X112363947Y-74603334D01*
X112156359Y-74621815D01*
X112043800Y-74651935D01*
X112003254Y-74697729D01*
X112001667Y-74713056D01*
X112026926Y-74763689D01*
X112118052Y-74797565D01*
X112298066Y-74818713D01*
X112589991Y-74831167D01*
X112689583Y-74833532D01*
X113377500Y-74848175D01*
X112711041Y-74871640D01*
X112411446Y-74889066D01*
X112161671Y-74916306D01*
X111997944Y-74948803D01*
X111958850Y-74966257D01*
X111861074Y-74996457D01*
X111827395Y-74963426D01*
X111738459Y-74927340D01*
X111552535Y-74903229D01*
X111313285Y-74891646D01*
X111064370Y-74893144D01*
X110849449Y-74908274D01*
X110712184Y-74937590D01*
X110692861Y-74949067D01*
X110587599Y-74963007D01*
X110449444Y-74914830D01*
X110273055Y-74820969D01*
X110467083Y-74819929D01*
X110619436Y-74786462D01*
X110661111Y-74717742D01*
X110657662Y-74713056D01*
X110731667Y-74713056D01*
X110757271Y-74765967D01*
X110850472Y-74798350D01*
X111035856Y-74814544D01*
X111331389Y-74818889D01*
X111631218Y-74814370D01*
X111814724Y-74797923D01*
X111906492Y-74765208D01*
X111931111Y-74713056D01*
X111869777Y-74627936D01*
X111754722Y-74607222D01*
X111622126Y-74631374D01*
X111578333Y-74677778D01*
X111524093Y-74745622D01*
X111503614Y-74748333D01*
X111461475Y-74705108D01*
X111472500Y-74677778D01*
X111466906Y-74612762D01*
X111441386Y-74607222D01*
X111369538Y-74658439D01*
X111366667Y-74677778D01*
X111312427Y-74745622D01*
X111291947Y-74748333D01*
X111249809Y-74705108D01*
X111260833Y-74677778D01*
X111229076Y-74631456D01*
X111080029Y-74608542D01*
X111018053Y-74607222D01*
X110820251Y-74624193D01*
X110737580Y-74680646D01*
X110731667Y-74713056D01*
X110657662Y-74713056D01*
X110599787Y-74634432D01*
X110467083Y-74587202D01*
G37*
G36*
X110327351Y-71658700D02*
G01*
X110435566Y-71788996D01*
X110526187Y-71934103D01*
X110659196Y-71771357D01*
X110784768Y-71661985D01*
X110871739Y-71688192D01*
X110920010Y-71849799D01*
X110929482Y-72146629D01*
X110925341Y-72250605D01*
X110912118Y-72501594D01*
X110903635Y-72616807D01*
X110897434Y-72601395D01*
X110891056Y-72460509D01*
X110886597Y-72331806D01*
X110868042Y-72113791D01*
X110834207Y-71966525D01*
X110802222Y-71926111D01*
X110739627Y-71983258D01*
X110731667Y-72031944D01*
X110688689Y-72126757D01*
X110599250Y-72116236D01*
X110555278Y-72067222D01*
X110454982Y-71993784D01*
X110355923Y-72031906D01*
X110308450Y-72160860D01*
X110308333Y-72168892D01*
X110282318Y-72318286D01*
X110237778Y-72384722D01*
X110195477Y-72348387D01*
X110171477Y-72187919D01*
X110167222Y-72036108D01*
X110186207Y-71780043D01*
X110240775Y-71653142D01*
X110327351Y-71658700D01*
G37*
G36*
X112387304Y-73844583D02*
G01*
X112579839Y-73848960D01*
X112739464Y-73855184D01*
X112766302Y-73860757D01*
X112668678Y-73865431D01*
X112454915Y-73868954D01*
X112133338Y-73871077D01*
X111825278Y-73871600D01*
X111425400Y-73870740D01*
X111124604Y-73868272D01*
X110931764Y-73864445D01*
X110855753Y-73859512D01*
X110905442Y-73853723D01*
X111027617Y-73849057D01*
X111443574Y-73841388D01*
X111922729Y-73839895D01*
X112387304Y-73844583D01*
G37*
G36*
X109700074Y-72765793D02*
G01*
X109840365Y-72950086D01*
X109926803Y-73251422D01*
X109955555Y-73651182D01*
X109950456Y-73935851D01*
X109928893Y-74118849D01*
X109881472Y-74239441D01*
X109798797Y-74336892D01*
X109789331Y-74345846D01*
X109464937Y-74621442D01*
X109189417Y-74791766D01*
X109095410Y-74831275D01*
X108932716Y-74947053D01*
X108883744Y-75088924D01*
X108799268Y-75253992D01*
X108608990Y-75397163D01*
X108347613Y-75509587D01*
X108049843Y-75582414D01*
X107750383Y-75606792D01*
X107483937Y-75573870D01*
X107305568Y-75491411D01*
X107232005Y-75414312D01*
X107252641Y-75385577D01*
X107365028Y-75434566D01*
X107380278Y-75453889D01*
X107481974Y-75502999D01*
X107679324Y-75522354D01*
X107930428Y-75513679D01*
X108193384Y-75478699D01*
X108426292Y-75419138D01*
X108451943Y-75409770D01*
X108698265Y-75272600D01*
X108809930Y-75098815D01*
X108797136Y-74907083D01*
X108799366Y-74816142D01*
X108903072Y-74775414D01*
X108969438Y-74768760D01*
X109147716Y-74717026D01*
X109366062Y-74601805D01*
X109479973Y-74522546D01*
X109653256Y-74389131D01*
X109776789Y-74295098D01*
X109812934Y-74268445D01*
X109830693Y-74192194D01*
X109847179Y-74010836D01*
X109859331Y-73760365D01*
X109861021Y-73703270D01*
X109851833Y-73323936D01*
X109795114Y-73057377D01*
X109682244Y-72880727D01*
X109510470Y-72773455D01*
X109355833Y-72711167D01*
X109509779Y-72706694D01*
X109700074Y-72765793D01*
G37*
G36*
X106962759Y-72771173D02*
G01*
X107062518Y-72612904D01*
X107070936Y-72602042D01*
X107220776Y-72463845D01*
X107399046Y-72430741D01*
X107441353Y-72433777D01*
X107636384Y-72508969D01*
X107782212Y-72667708D01*
X107869686Y-72872911D01*
X107889655Y-73087493D01*
X107832967Y-73274371D01*
X107690472Y-73396461D01*
X107679926Y-73400573D01*
X107593363Y-73441270D01*
X107608277Y-73479207D01*
X107739356Y-73535092D01*
X107787870Y-73552804D01*
X107954171Y-73626079D01*
X108044897Y-73691610D01*
X108050555Y-73705576D01*
X108006761Y-73839166D01*
X107898694Y-74011394D01*
X107761329Y-74178248D01*
X107629642Y-74295714D01*
X107558330Y-74325000D01*
X107436253Y-74374112D01*
X107268367Y-74500497D01*
X107148905Y-74616328D01*
X106965860Y-74793493D01*
X106801775Y-74888532D01*
X106593253Y-74933908D01*
X106511356Y-74942805D01*
X106274716Y-74980155D01*
X106165898Y-75045509D01*
X106171979Y-75156696D01*
X106255007Y-75296533D01*
X106434381Y-75487636D01*
X106630590Y-75548439D01*
X106876183Y-75488877D01*
X106880006Y-75487286D01*
X107057023Y-75423960D01*
X107128868Y-75419403D01*
X107084990Y-75468355D01*
X106974583Y-75534446D01*
X106792531Y-75596882D01*
X106561907Y-75630146D01*
X106327690Y-75633919D01*
X106134859Y-75607882D01*
X106028393Y-75551715D01*
X106022852Y-75541202D01*
X106021757Y-75445758D01*
X106078529Y-75445758D01*
X106095534Y-75550875D01*
X106169074Y-75595000D01*
X106288597Y-75564105D01*
X106309573Y-75548575D01*
X106314407Y-75467129D01*
X106246396Y-75379695D01*
X106157759Y-75345645D01*
X106137561Y-75352996D01*
X106078529Y-75445758D01*
X106021757Y-75445758D01*
X106021161Y-75393818D01*
X106049865Y-75321070D01*
X106097693Y-75137988D01*
X106017942Y-74998254D01*
X105877358Y-74937929D01*
X105525011Y-74799474D01*
X105239293Y-74553778D01*
X105040707Y-74226958D01*
X104949758Y-73845132D01*
X104947204Y-73777769D01*
X105016667Y-73777769D01*
X105028688Y-73996655D01*
X105067498Y-74091048D01*
X105104861Y-74094254D01*
X105166981Y-74009884D01*
X105168342Y-73929926D01*
X105158782Y-73840162D01*
X105201965Y-73851942D01*
X105279731Y-73919607D01*
X105458249Y-74029563D01*
X105624571Y-74006076D01*
X105734305Y-73926009D01*
X105829694Y-73863607D01*
X105863333Y-73882092D01*
X105814663Y-73984589D01*
X105761694Y-74039297D01*
X105692859Y-74166767D01*
X105696898Y-74241964D01*
X105714193Y-74318278D01*
X105672216Y-74284616D01*
X105632009Y-74236806D01*
X105534005Y-74139192D01*
X105485138Y-74113333D01*
X105444655Y-74171935D01*
X105435528Y-74236806D01*
X105420640Y-74297887D01*
X105378982Y-74229338D01*
X105365271Y-74196189D01*
X105307017Y-74084566D01*
X105242220Y-74093708D01*
X105188269Y-74143318D01*
X105122191Y-74230415D01*
X105136876Y-74319364D01*
X105227038Y-74448518D01*
X105394513Y-74609523D01*
X105608061Y-74749486D01*
X105637817Y-74764122D01*
X105891163Y-74841455D01*
X106199409Y-74878975D01*
X106507108Y-74875143D01*
X106758813Y-74828424D01*
X106831706Y-74797213D01*
X107022728Y-74639096D01*
X107207994Y-74403824D01*
X107344893Y-74150453D01*
X107382134Y-74034323D01*
X107382506Y-73872890D01*
X107447101Y-73872890D01*
X107462240Y-74125223D01*
X107515109Y-74241701D01*
X107607483Y-74222920D01*
X107741134Y-74069479D01*
X107794301Y-73989861D01*
X107893245Y-73827881D01*
X107946967Y-73725658D01*
X107950454Y-73709894D01*
X107883624Y-73675534D01*
X107734742Y-73610008D01*
X107694154Y-73592924D01*
X107450833Y-73491336D01*
X107447101Y-73872890D01*
X107382506Y-73872890D01*
X107382793Y-73748681D01*
X107285263Y-73451903D01*
X107110751Y-73208057D01*
X107107641Y-73205116D01*
X106939131Y-73104811D01*
X106678004Y-73010646D01*
X106372660Y-72933816D01*
X106071501Y-72885516D01*
X105822930Y-72876941D01*
X105741061Y-72889042D01*
X105576460Y-72965271D01*
X105376509Y-73104018D01*
X105283327Y-73183721D01*
X105121086Y-73349774D01*
X105042307Y-73495821D01*
X105017814Y-73686859D01*
X105016667Y-73777769D01*
X104947204Y-73777769D01*
X104946221Y-73751833D01*
X104960165Y-73545050D01*
X105019007Y-73382409D01*
X105148007Y-73207052D01*
X105228333Y-73116865D01*
X105425760Y-72860953D01*
X105499870Y-72650533D01*
X105453593Y-72468064D01*
X105356140Y-72352193D01*
X105130735Y-72227820D01*
X104883346Y-72229841D01*
X104651600Y-72356745D01*
X104625404Y-72381515D01*
X104487608Y-72584310D01*
X104456014Y-72784006D01*
X104523001Y-72947874D01*
X104680950Y-73043188D01*
X104782207Y-73055000D01*
X104925809Y-73003854D01*
X105053531Y-72882074D01*
X105128139Y-72737146D01*
X105118818Y-72625709D01*
X105057379Y-72591841D01*
X105003397Y-72657884D01*
X104913117Y-72755350D01*
X104863410Y-72772778D01*
X104828193Y-72737728D01*
X104868134Y-72675887D01*
X104913825Y-72533482D01*
X104900807Y-72454593D01*
X104890691Y-72363469D01*
X104947476Y-72359755D01*
X105040916Y-72428518D01*
X105140763Y-72554821D01*
X105156010Y-72580605D01*
X105217201Y-72715096D01*
X105197979Y-72816344D01*
X105090794Y-72945364D01*
X104897034Y-73080525D01*
X104683681Y-73124295D01*
X104499991Y-73069140D01*
X104466333Y-73040889D01*
X104394448Y-72882901D01*
X104391113Y-72664151D01*
X104452155Y-72444806D01*
X104514840Y-72341726D01*
X104642924Y-72230708D01*
X104822264Y-72182327D01*
X104973226Y-72175160D01*
X105176549Y-72163990D01*
X105273642Y-72124688D01*
X105298663Y-72043365D01*
X105298664Y-72042836D01*
X105357893Y-71843754D01*
X105506966Y-71643075D01*
X105703906Y-71489555D01*
X105814547Y-71443652D01*
X106075810Y-71426491D01*
X106243358Y-71484763D01*
X106441323Y-71548107D01*
X106596136Y-71514366D01*
X106772152Y-71454558D01*
X106987089Y-71412103D01*
X106988552Y-71411922D01*
X107186081Y-71410836D01*
X107437091Y-71440283D01*
X107701026Y-71491294D01*
X107937330Y-71554905D01*
X108105446Y-71622148D01*
X108163259Y-71671629D01*
X108253737Y-71725533D01*
X108439571Y-71727723D01*
X108745847Y-71761033D01*
X108940399Y-71850867D01*
X109197364Y-72002481D01*
X109298238Y-71858462D01*
X109399505Y-71748059D01*
X109465667Y-71714444D01*
X109512598Y-71776061D01*
X109530423Y-71931971D01*
X109520861Y-72138766D01*
X109485631Y-72353035D01*
X109433943Y-72515170D01*
X109351997Y-72710096D01*
X109291681Y-72869543D01*
X109291171Y-72871071D01*
X109242521Y-72976157D01*
X109214907Y-72966439D01*
X109214943Y-72867488D01*
X109248685Y-72706808D01*
X109264021Y-72449177D01*
X109178385Y-72209557D01*
X109093675Y-72102702D01*
X109275136Y-72102702D01*
X109288696Y-72232112D01*
X109344832Y-72363706D01*
X109402741Y-72368725D01*
X109446787Y-72260627D01*
X109461667Y-72083217D01*
X109455574Y-71920812D01*
X109426267Y-71877097D01*
X109357204Y-71929807D01*
X109351725Y-71935259D01*
X109275136Y-72102702D01*
X109093675Y-72102702D01*
X109018135Y-72007415D01*
X108809628Y-71862219D01*
X108579223Y-71793438D01*
X108353279Y-71820539D01*
X108191667Y-71926111D01*
X108070999Y-72030883D01*
X108001256Y-72064734D01*
X108006178Y-72021609D01*
X108049810Y-71962287D01*
X108104923Y-71825687D01*
X108097360Y-71754319D01*
X107995068Y-71660212D01*
X107791709Y-71582170D01*
X107526889Y-71525187D01*
X107240217Y-71494263D01*
X106971301Y-71494395D01*
X106759751Y-71530580D01*
X106673168Y-71574623D01*
X106612932Y-71700246D01*
X106622417Y-71772520D01*
X106613615Y-71817542D01*
X106512337Y-71757854D01*
X106436421Y-71696806D01*
X106162228Y-71532818D01*
X105900126Y-71505159D01*
X105660838Y-71613550D01*
X105552105Y-71719858D01*
X105408800Y-71954227D01*
X105377144Y-72168670D01*
X105460425Y-72336240D01*
X105475278Y-72349444D01*
X105552699Y-72480454D01*
X105581111Y-72645912D01*
X105594435Y-72790060D01*
X105663261Y-72829333D01*
X105780818Y-72810682D01*
X105987126Y-72801828D01*
X106280843Y-72835848D01*
X106617159Y-72906321D01*
X106798194Y-72956509D01*
X106902760Y-72947402D01*
X106905090Y-72940684D01*
X107007450Y-72940684D01*
X107077194Y-73061637D01*
X107186250Y-73183303D01*
X107314552Y-73306617D01*
X107418698Y-73384844D01*
X107473908Y-73404755D01*
X107455400Y-73353123D01*
X107421156Y-73308693D01*
X107374582Y-73157844D01*
X107404524Y-72964861D01*
X107497772Y-72796521D01*
X107528311Y-72767033D01*
X107597742Y-72732642D01*
X107621890Y-72805876D01*
X107622263Y-72887611D01*
X107613387Y-73014646D01*
X107589394Y-73011795D01*
X107562928Y-72951139D01*
X107521457Y-72867514D01*
X107493361Y-72904467D01*
X107471923Y-73003607D01*
X107474655Y-73183892D01*
X107542609Y-73294382D01*
X107646755Y-73310313D01*
X107740690Y-73232879D01*
X107830143Y-73034151D01*
X107793341Y-72832904D01*
X107692657Y-72676459D01*
X107517523Y-72523448D01*
X107343060Y-72511537D01*
X107168121Y-72640724D01*
X107138454Y-72676459D01*
X107029508Y-72829658D01*
X107007450Y-72940684D01*
X106905090Y-72940684D01*
X106921667Y-72892881D01*
X106962759Y-72771173D01*
G37*
G36*
X111975120Y-72133618D02*
G01*
X111972884Y-72348736D01*
X111961047Y-72611138D01*
X111930484Y-72760005D01*
X111874655Y-72822383D01*
X111857115Y-72827425D01*
X111731650Y-72818484D01*
X111698365Y-72798735D01*
X111650813Y-72696056D01*
X111728892Y-72636947D01*
X111786313Y-72631667D01*
X111869715Y-72609334D01*
X111917975Y-72520405D01*
X111945769Y-72331985D01*
X111951558Y-72261250D01*
X111965586Y-72089030D01*
X111973088Y-72045043D01*
X111975120Y-72133618D01*
G37*
G36*
X111067042Y-72154448D02*
G01*
X111136551Y-72151053D01*
X111240436Y-72213696D01*
X111284754Y-72314966D01*
X111257442Y-72399783D01*
X111195451Y-72420000D01*
X111098284Y-72456544D01*
X111084444Y-72490556D01*
X111138684Y-72558400D01*
X111159164Y-72561111D01*
X111201302Y-72604336D01*
X111190278Y-72631667D01*
X111109030Y-72704639D01*
X111047141Y-72650396D01*
X111015717Y-72482592D01*
X111013889Y-72414827D01*
X111022120Y-72274725D01*
X111084444Y-72274725D01*
X111135661Y-72346573D01*
X111155000Y-72349444D01*
X111223721Y-72325372D01*
X111225555Y-72318331D01*
X111176115Y-72258092D01*
X111155000Y-72243611D01*
X111089984Y-72249205D01*
X111084444Y-72274725D01*
X111022120Y-72274725D01*
X111024723Y-72230415D01*
X111067042Y-72154448D01*
G37*
G36*
X108032995Y-74994907D02*
G01*
X108011063Y-75128063D01*
X107934256Y-75254776D01*
X107813726Y-75317978D01*
X107696897Y-75310081D01*
X107631190Y-75223497D01*
X107628302Y-75189306D01*
X107669365Y-75023726D01*
X107704565Y-74960000D01*
X107751470Y-74913129D01*
X107750279Y-74984369D01*
X107737418Y-75048194D01*
X107737281Y-75198167D01*
X107798081Y-75246823D01*
X107880717Y-75192370D01*
X107940507Y-75057508D01*
X107985021Y-74934879D01*
X108022145Y-74908071D01*
X108032995Y-74994907D01*
G37*
G36*
X112425000Y-74078056D02*
G01*
X112486334Y-73992936D01*
X112601389Y-73972222D01*
X112743254Y-74009023D01*
X112777778Y-74078056D01*
X112827149Y-74152820D01*
X112988334Y-74190049D01*
X113077639Y-74195749D01*
X113377500Y-74207610D01*
X113096193Y-74236283D01*
X112904094Y-74273823D01*
X112776630Y-74331436D01*
X112761054Y-74347895D01*
X112694685Y-74386367D01*
X112631295Y-74325000D01*
X112560089Y-74261084D01*
X112519582Y-74307361D01*
X112448807Y-74385379D01*
X112374352Y-74380305D01*
X112354444Y-74326886D01*
X112287018Y-74299261D01*
X112097249Y-74274370D01*
X111803900Y-74253840D01*
X111425736Y-74239297D01*
X111313750Y-74236654D01*
X110273055Y-74215092D01*
X111349028Y-74199490D01*
X111767987Y-74191447D01*
X112065153Y-74179966D01*
X112259837Y-74162868D01*
X112371351Y-74137973D01*
X112405025Y-74113333D01*
X112495555Y-74113333D01*
X112552702Y-74175929D01*
X112601389Y-74183889D01*
X112695282Y-74145791D01*
X112707222Y-74113333D01*
X112650075Y-74050738D01*
X112601389Y-74042778D01*
X112507496Y-74080876D01*
X112495555Y-74113333D01*
X112405025Y-74113333D01*
X112419007Y-74103102D01*
X112425000Y-74078056D01*
G37*
G36*
X104839012Y-73205373D02*
G01*
X104923832Y-73228775D01*
X104923586Y-73242154D01*
X104826774Y-73272929D01*
X104660284Y-73282020D01*
X104513942Y-73288181D01*
X104468291Y-73346521D01*
X104490742Y-73499122D01*
X104491049Y-73500560D01*
X104580863Y-73761445D01*
X104709679Y-73888539D01*
X104778361Y-73901667D01*
X104866571Y-73942679D01*
X104875555Y-73972222D01*
X104858536Y-74033811D01*
X104791741Y-74013410D01*
X104651562Y-73902534D01*
X104630163Y-73884028D01*
X104473198Y-73670987D01*
X104405331Y-73460694D01*
X104363203Y-73196111D01*
X104666416Y-73196111D01*
X104839012Y-73205373D01*
G37*
G36*
X111419181Y-72360054D02*
G01*
X111431592Y-72674486D01*
X111448216Y-72875785D01*
X111476644Y-72991890D01*
X111524468Y-73050737D01*
X111599282Y-73080266D01*
X111616081Y-73084593D01*
X111761253Y-73152135D01*
X111769587Y-73237520D01*
X111641499Y-73325814D01*
X111609018Y-73338968D01*
X111409269Y-73399884D01*
X111318367Y-73385313D01*
X111323840Y-73296174D01*
X111342896Y-73182097D01*
X111360642Y-72961832D01*
X111374752Y-72670297D01*
X111381433Y-72431868D01*
X111396200Y-71679167D01*
X111419181Y-72360054D01*
G37*
G36*
X112387304Y-75114583D02*
G01*
X112579839Y-75118960D01*
X112739464Y-75125184D01*
X112766302Y-75130757D01*
X112668678Y-75135431D01*
X112454915Y-75138954D01*
X112133338Y-75141077D01*
X111825278Y-75141600D01*
X111425400Y-75140740D01*
X111124604Y-75138272D01*
X110931764Y-75134445D01*
X110855753Y-75129512D01*
X110905442Y-75123723D01*
X111027617Y-75119057D01*
X111443574Y-75111388D01*
X111922729Y-75109895D01*
X112387304Y-75114583D01*
G37*
G36*
X113469707Y-72247195D02*
G01*
X113483333Y-72283053D01*
X113441305Y-72327436D01*
X113420049Y-72318661D01*
X113380033Y-72351513D01*
X113366455Y-72483725D01*
X113367132Y-72503753D01*
X113345244Y-72661010D01*
X113248411Y-72760424D01*
X113056171Y-72811961D01*
X112748061Y-72825590D01*
X112707222Y-72825216D01*
X112389722Y-72821164D01*
X112742500Y-72772778D01*
X112916293Y-72744273D01*
X112991431Y-72721942D01*
X112971805Y-72713307D01*
X112876451Y-72654072D01*
X112855366Y-72508194D01*
X112862399Y-72314167D01*
X112916378Y-72490556D01*
X112970357Y-72666944D01*
X113051965Y-72490556D01*
X113133572Y-72314167D01*
X113105917Y-72511609D01*
X113103972Y-72652543D01*
X113164447Y-72689739D01*
X113192603Y-72685903D01*
X113273461Y-72622194D01*
X113286931Y-72460093D01*
X113284792Y-72435544D01*
X113288186Y-72270317D01*
X113349826Y-72210209D01*
X113372986Y-72208333D01*
X113469707Y-72247195D01*
G37*
G36*
X111591065Y-72402361D02*
G01*
X111648732Y-72278243D01*
X111719444Y-72243611D01*
X111810719Y-72303670D01*
X111847824Y-72402361D01*
X111834772Y-72526193D01*
X111725759Y-72561074D01*
X111719444Y-72561111D01*
X111606293Y-72528884D01*
X111591636Y-72420000D01*
X111648889Y-72420000D01*
X111702580Y-72488505D01*
X111719444Y-72490556D01*
X111787950Y-72436864D01*
X111790000Y-72420000D01*
X111736309Y-72351495D01*
X111719444Y-72349444D01*
X111650939Y-72403135D01*
X111648889Y-72420000D01*
X111591636Y-72420000D01*
X111590156Y-72409009D01*
X111591065Y-72402361D01*
G37*
G36*
X107203142Y-73972797D02*
G01*
X107225052Y-74045530D01*
X107232436Y-74153325D01*
X107163463Y-74156399D01*
X107075614Y-74174076D01*
X107057207Y-74239020D01*
X107039204Y-74304786D01*
X107016050Y-74272083D01*
X106940618Y-74188582D01*
X106860827Y-74232078D01*
X106829191Y-74307361D01*
X106803522Y-74375678D01*
X106790551Y-74309798D01*
X106788740Y-74280312D01*
X106721789Y-74139188D01*
X106639444Y-74092890D01*
X106524978Y-74033038D01*
X106498333Y-73984235D01*
X106552329Y-73962758D01*
X106688821Y-74007957D01*
X106714108Y-74020125D01*
X106870412Y-74086275D01*
X106970066Y-74078123D01*
X107057919Y-74011897D01*
X107156199Y-73937256D01*
X107203142Y-73972797D01*
G37*
%TD*%
D10*
%TO.C,D1*%
X130770000Y-67909998D03*
X130770000Y-71209998D03*
%TD*%
D11*
%TO.C,MCP42010*%
X133860000Y-78940000D03*
X133860000Y-78290000D03*
X133860000Y-77640000D03*
X133860000Y-76990000D03*
X133860000Y-76340000D03*
X133860000Y-75690000D03*
X133860000Y-75040000D03*
X127960000Y-75040000D03*
X127960000Y-75690000D03*
X127960000Y-76340000D03*
X127960000Y-76990000D03*
X127960000Y-77640000D03*
X127960000Y-78290000D03*
X127960000Y-78940000D03*
%TD*%
D12*
%TO.C,R1*%
X133840000Y-73060000D03*
X131840000Y-73060000D03*
%TD*%
D13*
%TO.C,ISOLATOR1*%
X117690000Y-69205000D03*
X120230000Y-69205000D03*
X122770000Y-69205000D03*
X125310000Y-69205000D03*
X125310000Y-78735000D03*
X122770000Y-78735000D03*
X120230000Y-78735000D03*
X117690000Y-78735000D03*
%TD*%
D14*
%TO.C,JP2*%
X112090000Y-78900000D03*
D15*
X113540000Y-78900000D03*
%TD*%
D16*
%TO.C,R2*%
X114850000Y-71920000D03*
X114850000Y-68820000D03*
%TD*%
D17*
%TO.C,JP1*%
X110145000Y-78900000D03*
D18*
X108695000Y-78900000D03*
%TD*%
D19*
%TO.C,R3*%
X133100000Y-68855000D03*
X133100000Y-70680000D03*
%TD*%
D20*
%TO.C,J1*%
X136660400Y-68320000D03*
D21*
X136660400Y-70682000D03*
%TD*%
D22*
%TO.C,U1*%
X107910000Y-81900400D03*
D23*
X110450000Y-81900400D03*
D24*
X112990000Y-81240000D03*
D22*
X115530000Y-81900400D03*
D24*
X118070000Y-81240000D03*
X120610000Y-81240000D03*
X123150000Y-81240000D03*
X125690000Y-81240000D03*
X128230000Y-81240000D03*
X130770000Y-81240000D03*
X133310000Y-81240000D03*
X135850000Y-81240000D03*
X135850000Y-66000000D03*
X133310000Y-66000000D03*
X130770000Y-66000000D03*
X128230000Y-66000000D03*
X125690000Y-66000000D03*
X123150000Y-66000000D03*
X120610000Y-66000000D03*
X118070000Y-66000000D03*
D23*
X115530000Y-65339600D03*
X112990000Y-65339600D03*
D24*
X110450000Y-66000000D03*
X107910000Y-66000000D03*
%TD*%
D21*
%TO.C,POTW1*%
X136660400Y-76568000D03*
D20*
X136660400Y-78900000D03*
%TD*%
M02*
