%TF.GenerationSoftware,KiCad,Pcbnew,(6.0.9)*%
%TF.CreationDate,2022-11-13T21:00:24-06:00*%
%TF.ProjectId,melodyous-micro,6d656c6f-6479-46f7-9573-2d6d6963726f,rev?*%
%TF.SameCoordinates,Original*%
%TF.FileFunction,Copper,L2,Bot*%
%TF.FilePolarity,Positive*%
%FSLAX46Y46*%
G04 Gerber Fmt 4.6, Leading zero omitted, Abs format (unit mm)*
G04 Created by KiCad (PCBNEW (6.0.9)) date 2022-11-13 21:00:24*
%MOMM*%
%LPD*%
G01*
G04 APERTURE LIST*
G04 Aperture macros list*
%AMFreePoly0*
4,1,17,0.377620,0.861655,0.861655,0.377620,0.876300,0.342265,0.876300,-0.342265,0.861655,-0.377620,0.377620,-0.861655,0.342265,-0.876300,-0.342265,-0.876300,-0.377620,-0.861655,-0.861655,-0.377620,-0.876300,-0.342265,-0.876300,0.342265,-0.861655,0.377620,-0.377620,0.861655,-0.342265,0.876300,0.342265,0.876300,0.377620,0.861655,0.377620,0.861655,$1*%
G04 Aperture macros list end*
%TA.AperFunction,ComponentPad*%
%ADD10R,3.000000X1.752600*%
%TD*%
%TA.AperFunction,ComponentPad*%
%ADD11O,3.000000X1.752600*%
%TD*%
%TA.AperFunction,ComponentPad*%
%ADD12O,1.752600X3.000000*%
%TD*%
%TA.AperFunction,ComponentPad*%
%ADD13R,1.752600X3.000000*%
%TD*%
%TA.AperFunction,ComponentPad*%
%ADD14FreePoly0,0.000000*%
%TD*%
%TA.AperFunction,ViaPad*%
%ADD15C,0.800000*%
%TD*%
%TA.AperFunction,Conductor*%
%ADD16C,0.250000*%
%TD*%
G04 APERTURE END LIST*
%TO.C,G2\u002A\u002A\u002A*%
G36*
X108870561Y-70722772D02*
G01*
X108891065Y-70753319D01*
X108928301Y-70813463D01*
X108980090Y-70899532D01*
X109044252Y-71007857D01*
X109118607Y-71134766D01*
X109200975Y-71276590D01*
X109289176Y-71429658D01*
X109325910Y-71493667D01*
X109411295Y-71642581D01*
X109489343Y-71778878D01*
X109557954Y-71898882D01*
X109615030Y-71998914D01*
X109658471Y-72075299D01*
X109686178Y-72124357D01*
X109696051Y-72142413D01*
X109686815Y-72160286D01*
X109659794Y-72208942D01*
X109617201Y-72284475D01*
X109561250Y-72382986D01*
X109494156Y-72500579D01*
X109418131Y-72633354D01*
X109335390Y-72777413D01*
X108973573Y-73406445D01*
X108145390Y-73406445D01*
X108012421Y-73406391D01*
X107829744Y-73406029D01*
X107681467Y-73405217D01*
X107564145Y-73403830D01*
X107474329Y-73401744D01*
X107408573Y-73398833D01*
X107363430Y-73394972D01*
X107335453Y-73390037D01*
X107321194Y-73383903D01*
X107317208Y-73376445D01*
X107318881Y-73362712D01*
X107332208Y-73346397D01*
X107346947Y-73331879D01*
X107373912Y-73290392D01*
X107406454Y-73231397D01*
X107436253Y-73175161D01*
X107462850Y-73128211D01*
X107477496Y-73106445D01*
X107480174Y-73103517D01*
X107498909Y-73073835D01*
X107524055Y-73026445D01*
X107531820Y-73011192D01*
X107568777Y-72943561D01*
X107608359Y-72876445D01*
X107621730Y-72854632D01*
X107655392Y-72797944D01*
X107678582Y-72756445D01*
X107685330Y-72743828D01*
X107713437Y-72694231D01*
X107747618Y-72636445D01*
X107756941Y-72620746D01*
X107797211Y-72548484D01*
X107831307Y-72481445D01*
X107840061Y-72463778D01*
X107864712Y-72422812D01*
X107881926Y-72406445D01*
X107886943Y-72405140D01*
X107897207Y-72383019D01*
X107901952Y-72364455D01*
X107924699Y-72328019D01*
X107925403Y-72327194D01*
X107948705Y-72292838D01*
X107982489Y-72235253D01*
X108019699Y-72166445D01*
X108023702Y-72158751D01*
X108057409Y-72095284D01*
X108083722Y-72047931D01*
X108097239Y-72026445D01*
X108097875Y-72025758D01*
X108113638Y-72000387D01*
X108136377Y-71956445D01*
X108163517Y-71905584D01*
X108188542Y-71866445D01*
X108208187Y-71836508D01*
X108240488Y-71782117D01*
X108277472Y-71716445D01*
X108285738Y-71701389D01*
X108333791Y-71614108D01*
X108368786Y-71551294D01*
X108396039Y-71503627D01*
X108420867Y-71461784D01*
X108448589Y-71416445D01*
X108461871Y-71394604D01*
X108494917Y-71337931D01*
X108517207Y-71296445D01*
X108523845Y-71283458D01*
X108551593Y-71233963D01*
X108586056Y-71176445D01*
X108596427Y-71159428D01*
X108636783Y-71089497D01*
X108670360Y-71026445D01*
X108676795Y-71013688D01*
X108700882Y-70969374D01*
X108716197Y-70946445D01*
X108716936Y-70945716D01*
X108733656Y-70920312D01*
X108757208Y-70876445D01*
X108759107Y-70872658D01*
X108782124Y-70829688D01*
X108797176Y-70806445D01*
X108807750Y-70792257D01*
X108829387Y-70756445D01*
X108846594Y-70732343D01*
X108867512Y-70719658D01*
X108870561Y-70722772D01*
G37*
%TD*%
D10*
%TO.P,J1,C*%
%TO.N,Net-(D1-Pad2)*%
X136660400Y-68320000D03*
D11*
%TO.P,J1,A*%
%TO.N,Net-(J1-PadA)*%
X136660400Y-70682000D03*
%TD*%
D12*
%TO.P,U1,24,RAW*%
%TO.N,Net-(JP1-Pad1)*%
X107910000Y-81900400D03*
D13*
%TO.P,U1,23,GND*%
%TO.N,Net-(ISOLATOR1-Pad5)*%
X110450000Y-81900400D03*
D14*
%TO.P,U1,22,RST*%
%TO.N,unconnected-(U1-Pad22)*%
X112990000Y-81240000D03*
D12*
%TO.P,U1,21,VCC*%
%TO.N,Net-(JP2-Pad1)*%
X115530000Y-81900400D03*
D14*
%TO.P,U1,20,A3/PF4*%
%TO.N,unconnected-(U1-Pad20)*%
X118070000Y-81240000D03*
%TO.P,U1,19,A2/PF5*%
%TO.N,unconnected-(U1-Pad19)*%
X120610000Y-81240000D03*
%TO.P,U1,18,A1/PF6*%
%TO.N,unconnected-(U1-Pad18)*%
X123150000Y-81240000D03*
%TO.P,U1,17,A0/PF7*%
%TO.N,unconnected-(U1-Pad17)*%
X125690000Y-81240000D03*
%TO.P,U1,16,15/PB1*%
%TO.N,Net-(MCP42010-Pad2)*%
X128230000Y-81240000D03*
%TO.P,U1,15,14/PB3*%
%TO.N,unconnected-(U1-Pad15)*%
X130770000Y-81240000D03*
%TO.P,U1,14,16/PB2*%
%TO.N,Net-(MCP42010-Pad3)*%
X133310000Y-81240000D03*
%TO.P,U1,13,10/PB6*%
%TO.N,Net-(MCP42010-Pad1)*%
X135850000Y-81240000D03*
%TO.P,U1,12,9/PB5*%
%TO.N,unconnected-(U1-Pad12)*%
X135850000Y-66000000D03*
%TO.P,U1,11,8/PB4*%
%TO.N,unconnected-(U1-Pad11)*%
X133310000Y-66000000D03*
%TO.P,U1,10,7/PE6*%
%TO.N,unconnected-(U1-Pad10)*%
X130770000Y-66000000D03*
%TO.P,U1,9,6/PD7*%
%TO.N,unconnected-(U1-Pad9)*%
X128230000Y-66000000D03*
%TO.P,U1,8,5/PC6*%
%TO.N,unconnected-(U1-Pad8)*%
X125690000Y-66000000D03*
%TO.P,U1,7,4/PD4*%
%TO.N,unconnected-(U1-Pad7)*%
X123150000Y-66000000D03*
%TO.P,U1,6,3/PD0*%
%TO.N,unconnected-(U1-Pad6)*%
X120610000Y-66000000D03*
%TO.P,U1,5,2/PD1*%
%TO.N,unconnected-(U1-Pad5)*%
X118070000Y-66000000D03*
D13*
%TO.P,U1,4,GND*%
%TO.N,Net-(ISOLATOR1-Pad5)*%
X115530000Y-65339600D03*
%TO.P,U1,3,GND*%
X112990000Y-65339600D03*
D14*
%TO.P,U1,2,RX1/PD2*%
%TO.N,Net-(ISOLATOR1-Pad6)*%
X110450000Y-66000000D03*
%TO.P,U1,1,TX0/PD3*%
%TO.N,unconnected-(U1-Pad1)*%
X107910000Y-66000000D03*
%TD*%
D11*
%TO.P,POTW1,2,Pin_2*%
%TO.N,Net-(MCP42010-Pad10)*%
X136660400Y-76568000D03*
D10*
%TO.P,POTW1,1,Pin_1*%
%TO.N,Net-(MCP42010-Pad9)*%
X136660400Y-78900000D03*
%TD*%
D15*
%TO.N,Net-(D1-Pad2)*%
X129190000Y-67970000D03*
X122212109Y-72226218D03*
%TO.N,Net-(ISOLATOR1-Pad5)*%
X132305070Y-76607799D03*
X125340000Y-71200000D03*
%TO.N,Net-(ISOLATOR1-Pad6)*%
X129860000Y-74170000D03*
%TO.N,Net-(ISOLATOR1-Pad8)*%
X117690000Y-71220000D03*
X135730000Y-73000000D03*
%TO.N,Net-(MCP42010-Pad2)*%
X132270000Y-78290000D03*
%TO.N,Net-(MCP42010-Pad9)*%
X126200000Y-76160000D03*
%TO.N,Net-(MCP42010-Pad10)*%
X130960000Y-75800000D03*
%TD*%
D16*
%TO.N,Net-(D1-Pad2)*%
X125620852Y-71944452D02*
X129046703Y-68518601D01*
X129190000Y-67970000D02*
X129190000Y-68172652D01*
X124940608Y-72226218D02*
X122212109Y-72226218D01*
X129046688Y-68518586D02*
G75*
G03*
X129190000Y-68172652I-345988J345986D01*
G01*
X125620849Y-71944449D02*
G75*
G02*
X124940608Y-72226218I-680249J680249D01*
G01*
%TO.N,Net-(ISOLATOR1-Pad5)*%
X110450000Y-79877989D02*
X110450000Y-81240000D01*
X132305070Y-76607799D02*
X129226902Y-76607799D01*
X119933103Y-70403103D02*
X115530000Y-66000000D01*
X125610896Y-75110000D02*
X123036981Y-75110000D01*
X118416896Y-78603103D02*
X121113103Y-75906896D01*
X116493018Y-79400000D02*
X110927989Y-79400000D01*
X121856981Y-71200000D02*
X125340000Y-71200000D01*
X127418900Y-75858898D02*
G75*
G03*
X125610896Y-75110000I-1808000J-1808002D01*
G01*
X110927989Y-79399996D02*
G75*
G03*
X110590000Y-79540000I11J-478004D01*
G01*
X118416893Y-78603100D02*
G75*
G02*
X116493018Y-79400000I-1923893J1923900D01*
G01*
X121113107Y-75906900D02*
G75*
G02*
X123036981Y-75110000I1923893J-1923900D01*
G01*
X110449996Y-79877989D02*
G75*
G02*
X110590000Y-79540000I478004J-11D01*
G01*
X121856981Y-71200005D02*
G75*
G02*
X119933103Y-70403103I19J2720805D01*
G01*
X127418898Y-75858900D02*
G75*
G03*
X129226902Y-76607799I1808002J1808000D01*
G01*
%TO.N,Net-(ISOLATOR1-Pad6)*%
X117823103Y-73373103D02*
X110450000Y-66000000D01*
X129860000Y-74170000D02*
X119746981Y-74170000D01*
X119746981Y-74170005D02*
G75*
G02*
X117823103Y-73373103I19J2720805D01*
G01*
%TO.N,Net-(ISOLATOR1-Pad8)*%
X118673103Y-72203103D02*
X117690000Y-71220000D01*
X120596981Y-73000000D02*
X135730000Y-73000000D01*
X118673107Y-72203099D02*
G75*
G03*
X120596981Y-73000000I1923893J1923899D01*
G01*
%TO.N,Net-(MCP42010-Pad2)*%
X131725000Y-78290000D02*
X132270000Y-78290000D01*
X130794626Y-78675373D02*
X128230000Y-81240000D01*
X130794636Y-78675383D02*
G75*
G02*
X131725000Y-78290000I930364J-930317D01*
G01*
%TO.N,Net-(MCP42010-Pad9)*%
X130628645Y-77160526D02*
X125385541Y-77072608D01*
X126200000Y-76160000D02*
X125144577Y-76771967D01*
X132865242Y-77619291D02*
X136000000Y-78900000D01*
X125120003Y-76959997D02*
G75*
G03*
X125385541Y-77072608I271997J271997D01*
G01*
X132865242Y-77619291D02*
G75*
G03*
X130628645Y-77160527I-2340342J-5728409D01*
G01*
X125120039Y-76959961D02*
G75*
G02*
X125144577Y-76771967I84561J84561D01*
G01*
%TO.N,Net-(MCP42010-Pad10)*%
X130960000Y-75800000D02*
X131915000Y-75715000D01*
X133788420Y-75905232D02*
X136000000Y-76568000D01*
X131915001Y-75715016D02*
G75*
G02*
X133788420Y-75905232I442099J-4966484D01*
G01*
%TD*%
%TA.AperFunction,Conductor*%
%TO.N,Net-(MCP42010-Pad2)*%
G36*
X132101488Y-77935619D02*
G01*
X132372035Y-78195791D01*
X132461231Y-78281567D01*
X132464819Y-78289771D01*
X132461231Y-78298433D01*
X132310234Y-78443640D01*
X132101701Y-78644176D01*
X132093362Y-78647441D01*
X132088192Y-78646123D01*
X132015150Y-78608130D01*
X132014699Y-78607882D01*
X131943785Y-78566938D01*
X131943637Y-78566851D01*
X131905951Y-78544348D01*
X131879097Y-78528312D01*
X131818187Y-78493933D01*
X131758091Y-78465432D01*
X131728003Y-78455293D01*
X131696340Y-78444623D01*
X131696337Y-78444622D01*
X131695915Y-78444480D01*
X131628766Y-78432750D01*
X131553752Y-78431913D01*
X131467978Y-78443640D01*
X131409274Y-78458970D01*
X131379335Y-78466788D01*
X131370465Y-78465563D01*
X131365216Y-78458970D01*
X131297220Y-78242245D01*
X131298013Y-78233326D01*
X131304892Y-78227576D01*
X131406576Y-78195791D01*
X131502414Y-78165840D01*
X131584890Y-78139648D01*
X131584899Y-78139645D01*
X131657664Y-78115650D01*
X131724400Y-78092279D01*
X131724487Y-78092246D01*
X131724504Y-78092240D01*
X131750495Y-78082422D01*
X131788757Y-78067969D01*
X131788829Y-78067940D01*
X131788846Y-78067933D01*
X131821041Y-78054780D01*
X131854399Y-78041152D01*
X131924986Y-78010263D01*
X131928133Y-78008812D01*
X132004141Y-77973753D01*
X132004181Y-77973734D01*
X132088332Y-77933497D01*
X132097273Y-77933019D01*
X132101488Y-77935619D01*
G37*
%TD.AperFunction*%
%TD*%
%TA.AperFunction,Conductor*%
%TO.N,Net-(MCP42010-Pad2)*%
G36*
X129384287Y-79924647D02*
G01*
X129545353Y-80085713D01*
X129548780Y-80093986D01*
X129545770Y-80101819D01*
X129414926Y-80246975D01*
X129379880Y-80297319D01*
X129336662Y-80359404D01*
X129316813Y-80387917D01*
X129251201Y-80520232D01*
X129210420Y-80647763D01*
X129186802Y-80774351D01*
X129186780Y-80774557D01*
X129172679Y-80903836D01*
X129160400Y-81039871D01*
X129160359Y-81040254D01*
X129142295Y-81186456D01*
X129142164Y-81187275D01*
X129110699Y-81347563D01*
X129110444Y-81348605D01*
X129060188Y-81519353D01*
X129054566Y-81526321D01*
X129049196Y-81527747D01*
X128270361Y-81542973D01*
X127932347Y-81549581D01*
X127924008Y-81546316D01*
X127920420Y-81537654D01*
X127937809Y-80648116D01*
X127942252Y-80420806D01*
X127945840Y-80412603D01*
X127950646Y-80409812D01*
X128121388Y-80359557D01*
X128122438Y-80359300D01*
X128175352Y-80348912D01*
X128282736Y-80327832D01*
X128283529Y-80327705D01*
X128393424Y-80314127D01*
X128429744Y-80309640D01*
X128430127Y-80309599D01*
X128566162Y-80297319D01*
X128695647Y-80283196D01*
X128695843Y-80283159D01*
X128695846Y-80283159D01*
X128821882Y-80259644D01*
X128821884Y-80259643D01*
X128822235Y-80259578D01*
X128949766Y-80218797D01*
X129082081Y-80153185D01*
X129167723Y-80093568D01*
X129222723Y-80055281D01*
X129222725Y-80055280D01*
X129223023Y-80055072D01*
X129223286Y-80054835D01*
X129223291Y-80054831D01*
X129368180Y-79924229D01*
X129376620Y-79921236D01*
X129384287Y-79924647D01*
G37*
%TD.AperFunction*%
%TD*%
%TA.AperFunction,Conductor*%
%TO.N,Net-(MCP42010-Pad9)*%
G36*
X125876750Y-75938026D02*
G01*
X126361201Y-76056782D01*
X126368420Y-76062080D01*
X126369661Y-76071374D01*
X126232062Y-76550814D01*
X126226486Y-76557820D01*
X126221349Y-76559274D01*
X126170637Y-76561578D01*
X126151302Y-76562457D01*
X126150698Y-76562469D01*
X126081829Y-76562040D01*
X126081459Y-76562032D01*
X126019294Y-76559679D01*
X126019291Y-76559679D01*
X125961660Y-76557482D01*
X125961646Y-76557482D01*
X125961573Y-76557479D01*
X125961476Y-76557479D01*
X125945170Y-76557492D01*
X125906106Y-76557523D01*
X125905878Y-76557541D01*
X125905876Y-76557541D01*
X125850817Y-76561873D01*
X125850512Y-76561897D01*
X125805694Y-76570220D01*
X125792744Y-76572625D01*
X125792741Y-76572626D01*
X125792411Y-76572687D01*
X125729425Y-76591978D01*
X125729148Y-76592096D01*
X125659405Y-76621757D01*
X125659399Y-76621760D01*
X125659173Y-76621856D01*
X125658955Y-76621972D01*
X125658951Y-76621974D01*
X125589239Y-76659102D01*
X125580326Y-76659966D01*
X125573617Y-76654644D01*
X125537350Y-76592096D01*
X125459536Y-76457894D01*
X125458351Y-76449019D01*
X125463427Y-76442124D01*
X125530494Y-76399931D01*
X125591324Y-76353804D01*
X125639357Y-76308722D01*
X125639570Y-76308471D01*
X125677387Y-76263891D01*
X125677393Y-76263884D01*
X125677584Y-76263658D01*
X125708998Y-76217582D01*
X125736591Y-76169466D01*
X125743446Y-76156356D01*
X125763353Y-76118283D01*
X125763354Y-76118280D01*
X125792199Y-76063153D01*
X125792376Y-76062828D01*
X125826205Y-76002862D01*
X125826515Y-76002343D01*
X125864085Y-75943122D01*
X125871411Y-75937972D01*
X125876750Y-75938026D01*
G37*
%TD.AperFunction*%
%TD*%
%TA.AperFunction,Conductor*%
%TO.N,Net-(ISOLATOR1-Pad5)*%
G36*
X115601414Y-65697634D02*
G01*
X116349194Y-65712252D01*
X116357397Y-65715840D01*
X116360188Y-65720646D01*
X116410442Y-65891388D01*
X116410699Y-65892438D01*
X116442164Y-66052723D01*
X116442295Y-66053542D01*
X116460359Y-66199744D01*
X116460400Y-66200127D01*
X116472680Y-66336162D01*
X116486803Y-66465647D01*
X116510420Y-66592235D01*
X116551201Y-66719766D01*
X116616814Y-66852081D01*
X116714926Y-66993023D01*
X116715170Y-66993293D01*
X116715171Y-66993295D01*
X116845770Y-67138179D01*
X116848764Y-67146619D01*
X116845353Y-67154286D01*
X116684286Y-67315353D01*
X116676013Y-67318780D01*
X116668179Y-67315770D01*
X116667717Y-67315353D01*
X116523023Y-67184926D01*
X116382081Y-67086814D01*
X116249766Y-67021201D01*
X116122235Y-66980420D01*
X116121884Y-66980355D01*
X116121882Y-66980354D01*
X115995846Y-66956840D01*
X115995843Y-66956840D01*
X115995647Y-66956803D01*
X115866162Y-66942680D01*
X115730127Y-66930400D01*
X115729744Y-66930359D01*
X115693494Y-66925880D01*
X115583529Y-66912293D01*
X115582736Y-66912166D01*
X115475047Y-66891027D01*
X115422438Y-66880699D01*
X115421388Y-66880442D01*
X115250646Y-66830188D01*
X115243678Y-66824565D01*
X115242252Y-66819193D01*
X115240309Y-66719766D01*
X115224136Y-65892438D01*
X115220420Y-65702347D01*
X115223685Y-65694008D01*
X115232347Y-65690420D01*
X115601414Y-65697634D01*
G37*
%TD.AperFunction*%
%TD*%
%TA.AperFunction,Conductor*%
%TO.N,Net-(MCP42010-Pad10)*%
G36*
X135860921Y-75706290D02*
G01*
X135864723Y-75710343D01*
X136413729Y-76683184D01*
X136414811Y-76692071D01*
X136408888Y-76699338D01*
X135415334Y-77209904D01*
X135406409Y-77210638D01*
X135401672Y-77207730D01*
X135276438Y-77081259D01*
X135275714Y-77080457D01*
X135171982Y-76954278D01*
X135171478Y-76953619D01*
X135086209Y-76833462D01*
X135085992Y-76833144D01*
X135010723Y-76719319D01*
X135010716Y-76719309D01*
X135010666Y-76719233D01*
X134936811Y-76611942D01*
X134855972Y-76511706D01*
X134759575Y-76418781D01*
X134759218Y-76418528D01*
X134759213Y-76418524D01*
X134639409Y-76333677D01*
X134639407Y-76333676D01*
X134639050Y-76333423D01*
X134638659Y-76333225D01*
X134486142Y-76256051D01*
X134486136Y-76256049D01*
X134485821Y-76255889D01*
X134301780Y-76190170D01*
X134295142Y-76184160D01*
X134294507Y-76175792D01*
X134344059Y-76010445D01*
X134359896Y-75957597D01*
X134365554Y-75950656D01*
X134373878Y-75949590D01*
X134406690Y-75957597D01*
X134563729Y-75995919D01*
X134564100Y-75995961D01*
X134564103Y-75995962D01*
X134690596Y-76010430D01*
X134734345Y-76015434D01*
X134795760Y-76013352D01*
X134881511Y-76010445D01*
X134881513Y-76010445D01*
X134881950Y-76010430D01*
X134882377Y-76010350D01*
X134882379Y-76010350D01*
X135013207Y-75985902D01*
X135013209Y-75985902D01*
X135013565Y-75985835D01*
X135013907Y-75985725D01*
X135013913Y-75985724D01*
X135135993Y-75946648D01*
X135136005Y-75946644D01*
X135136207Y-75946579D01*
X135136407Y-75946498D01*
X135136412Y-75946496D01*
X135256897Y-75897589D01*
X135382470Y-75843873D01*
X135382827Y-75843727D01*
X135520110Y-75790274D01*
X135520893Y-75790001D01*
X135676920Y-75741669D01*
X135677966Y-75741397D01*
X135852118Y-75704645D01*
X135860921Y-75706290D01*
G37*
%TD.AperFunction*%
%TD*%
%TA.AperFunction,Conductor*%
%TO.N,Net-(ISOLATOR1-Pad5)*%
G36*
X125171703Y-70845826D02*
G01*
X125531231Y-71191567D01*
X125534819Y-71199771D01*
X125531231Y-71208433D01*
X125171703Y-71554174D01*
X125163365Y-71557439D01*
X125158191Y-71556119D01*
X125095994Y-71523736D01*
X125095465Y-71523443D01*
X125086739Y-71518311D01*
X125036061Y-71488503D01*
X125035785Y-71488333D01*
X124983190Y-71455118D01*
X124983188Y-71455115D01*
X124983187Y-71455116D01*
X124934437Y-71424310D01*
X124934427Y-71424304D01*
X124934359Y-71424261D01*
X124886352Y-71396476D01*
X124886150Y-71396379D01*
X124886144Y-71396376D01*
X124836339Y-71372506D01*
X124836064Y-71372374D01*
X124780389Y-71352564D01*
X124754557Y-71346563D01*
X124716524Y-71337728D01*
X124716521Y-71337728D01*
X124716222Y-71337658D01*
X124715913Y-71337620D01*
X124715909Y-71337619D01*
X124671886Y-71332162D01*
X124640461Y-71328266D01*
X124584870Y-71326259D01*
X124561278Y-71325407D01*
X124553134Y-71321684D01*
X124550000Y-71313715D01*
X124550000Y-71086285D01*
X124553427Y-71078012D01*
X124561278Y-71074593D01*
X124594212Y-71073403D01*
X124640461Y-71071733D01*
X124671886Y-71067837D01*
X124715909Y-71062380D01*
X124715913Y-71062379D01*
X124716222Y-71062341D01*
X124716521Y-71062271D01*
X124716524Y-71062271D01*
X124780070Y-71047509D01*
X124780068Y-71047509D01*
X124780389Y-71047435D01*
X124836064Y-71027625D01*
X124855766Y-71018182D01*
X124886144Y-71003623D01*
X124886150Y-71003620D01*
X124886352Y-71003523D01*
X124934359Y-70975738D01*
X124983187Y-70944883D01*
X125035785Y-70911666D01*
X125036061Y-70911496D01*
X125095465Y-70876556D01*
X125095994Y-70876263D01*
X125103879Y-70872158D01*
X125158191Y-70843881D01*
X125167111Y-70843100D01*
X125171703Y-70845826D01*
G37*
%TD.AperFunction*%
%TD*%
%TA.AperFunction,Conductor*%
%TO.N,Net-(ISOLATOR1-Pad5)*%
G36*
X132136773Y-76253625D02*
G01*
X132496301Y-76599366D01*
X132499889Y-76607570D01*
X132496301Y-76616232D01*
X132136773Y-76961973D01*
X132128435Y-76965238D01*
X132123261Y-76963918D01*
X132061064Y-76931535D01*
X132060535Y-76931242D01*
X132051809Y-76926110D01*
X132001131Y-76896302D01*
X132000855Y-76896132D01*
X131948260Y-76862917D01*
X131948258Y-76862914D01*
X131948257Y-76862915D01*
X131899507Y-76832109D01*
X131899497Y-76832103D01*
X131899429Y-76832060D01*
X131851422Y-76804275D01*
X131851220Y-76804178D01*
X131851214Y-76804175D01*
X131801409Y-76780305D01*
X131801134Y-76780173D01*
X131745459Y-76760363D01*
X131719627Y-76754362D01*
X131681594Y-76745527D01*
X131681591Y-76745527D01*
X131681292Y-76745457D01*
X131680983Y-76745419D01*
X131680979Y-76745418D01*
X131636956Y-76739961D01*
X131605531Y-76736065D01*
X131549940Y-76734058D01*
X131526348Y-76733206D01*
X131518204Y-76729483D01*
X131515070Y-76721514D01*
X131515070Y-76494084D01*
X131518497Y-76485811D01*
X131526348Y-76482392D01*
X131559282Y-76481202D01*
X131605531Y-76479532D01*
X131636956Y-76475636D01*
X131680979Y-76470179D01*
X131680983Y-76470178D01*
X131681292Y-76470140D01*
X131681591Y-76470070D01*
X131681594Y-76470070D01*
X131745140Y-76455308D01*
X131745138Y-76455308D01*
X131745459Y-76455234D01*
X131801134Y-76435424D01*
X131820836Y-76425981D01*
X131851214Y-76411422D01*
X131851220Y-76411419D01*
X131851422Y-76411322D01*
X131899429Y-76383537D01*
X131948257Y-76352682D01*
X132000855Y-76319465D01*
X132001131Y-76319295D01*
X132060535Y-76284355D01*
X132061064Y-76284062D01*
X132068949Y-76279957D01*
X132123261Y-76251680D01*
X132132181Y-76250899D01*
X132136773Y-76253625D01*
G37*
%TD.AperFunction*%
%TD*%
%TA.AperFunction,Conductor*%
%TO.N,Net-(MCP42010-Pad10)*%
G36*
X131109523Y-75429166D02*
G01*
X131117123Y-75432301D01*
X131174352Y-75455910D01*
X131174904Y-75456155D01*
X131237138Y-75485675D01*
X131237444Y-75485826D01*
X131255613Y-75495159D01*
X131292788Y-75514254D01*
X131292791Y-75514255D01*
X131344050Y-75540604D01*
X131344070Y-75540614D01*
X131344162Y-75540661D01*
X131394442Y-75564080D01*
X131446669Y-75583629D01*
X131457962Y-75586550D01*
X131503554Y-75598341D01*
X131503563Y-75598343D01*
X131503881Y-75598425D01*
X131504210Y-75598471D01*
X131504214Y-75598472D01*
X131568816Y-75607542D01*
X131568818Y-75607542D01*
X131569116Y-75607584D01*
X131625787Y-75609543D01*
X131645148Y-75610213D01*
X131645151Y-75610213D01*
X131645412Y-75610222D01*
X131724537Y-75606050D01*
X131732979Y-75609037D01*
X131736807Y-75616697D01*
X131755379Y-75825353D01*
X131756970Y-75843229D01*
X131754290Y-75851773D01*
X131746773Y-75855875D01*
X131668416Y-75865710D01*
X131668413Y-75865710D01*
X131668154Y-75865743D01*
X131667904Y-75865797D01*
X131667897Y-75865798D01*
X131593820Y-75881750D01*
X131593815Y-75881751D01*
X131593524Y-75881814D01*
X131593240Y-75881907D01*
X131593237Y-75881908D01*
X131572088Y-75888847D01*
X131530932Y-75902351D01*
X131496973Y-75917950D01*
X131477510Y-75926890D01*
X131477505Y-75926892D01*
X131477232Y-75927018D01*
X131476971Y-75927173D01*
X131476967Y-75927175D01*
X131429473Y-75955368D01*
X131429278Y-75955484D01*
X131383924Y-75987416D01*
X131383845Y-75987476D01*
X131383825Y-75987491D01*
X131338026Y-76022476D01*
X131338024Y-76022478D01*
X131288556Y-76060245D01*
X131288258Y-76060464D01*
X131232257Y-76100482D01*
X131231757Y-76100821D01*
X131172665Y-76138598D01*
X131163849Y-76140167D01*
X131159033Y-76137859D01*
X131112764Y-76100666D01*
X130770271Y-75825353D01*
X130765970Y-75817499D01*
X130768775Y-75808553D01*
X130941399Y-75610208D01*
X131096236Y-75432301D01*
X131104253Y-75428310D01*
X131109523Y-75429166D01*
G37*
%TD.AperFunction*%
%TD*%
%TA.AperFunction,Conductor*%
%TO.N,Net-(ISOLATOR1-Pad6)*%
G36*
X110521414Y-65697634D02*
G01*
X111269194Y-65712252D01*
X111277397Y-65715840D01*
X111280188Y-65720646D01*
X111330442Y-65891388D01*
X111330699Y-65892438D01*
X111362164Y-66052723D01*
X111362295Y-66053542D01*
X111380359Y-66199744D01*
X111380400Y-66200127D01*
X111392680Y-66336162D01*
X111406803Y-66465647D01*
X111430420Y-66592235D01*
X111471201Y-66719766D01*
X111536814Y-66852081D01*
X111634926Y-66993023D01*
X111635170Y-66993293D01*
X111635171Y-66993295D01*
X111765770Y-67138179D01*
X111768764Y-67146619D01*
X111765353Y-67154286D01*
X111604286Y-67315353D01*
X111596013Y-67318780D01*
X111588179Y-67315770D01*
X111587717Y-67315353D01*
X111443023Y-67184926D01*
X111302081Y-67086814D01*
X111169766Y-67021201D01*
X111042235Y-66980420D01*
X111041884Y-66980355D01*
X111041882Y-66980354D01*
X110915846Y-66956840D01*
X110915843Y-66956840D01*
X110915647Y-66956803D01*
X110786162Y-66942680D01*
X110650127Y-66930400D01*
X110649744Y-66930359D01*
X110613494Y-66925880D01*
X110503529Y-66912293D01*
X110502736Y-66912166D01*
X110395047Y-66891027D01*
X110342438Y-66880699D01*
X110341388Y-66880442D01*
X110170646Y-66830188D01*
X110163678Y-66824565D01*
X110162252Y-66819193D01*
X110160309Y-66719766D01*
X110144136Y-65892438D01*
X110140420Y-65702347D01*
X110143685Y-65694008D01*
X110152347Y-65690420D01*
X110521414Y-65697634D01*
G37*
%TD.AperFunction*%
%TD*%
%TA.AperFunction,Conductor*%
%TO.N,Net-(ISOLATOR1-Pad8)*%
G36*
X118059443Y-71088566D02*
G01*
X118067647Y-71092154D01*
X118070373Y-71096747D01*
X118091458Y-71163637D01*
X118091624Y-71164217D01*
X118108899Y-71230843D01*
X118108987Y-71231202D01*
X118122699Y-71291910D01*
X118122698Y-71291910D01*
X118122700Y-71291914D01*
X118135407Y-71348254D01*
X118149706Y-71401846D01*
X118149783Y-71402065D01*
X118149784Y-71402068D01*
X118168118Y-71454155D01*
X118168121Y-71454163D01*
X118168222Y-71454449D01*
X118193583Y-71507824D01*
X118193756Y-71508102D01*
X118193760Y-71508109D01*
X118228251Y-71563474D01*
X118228415Y-71563737D01*
X118228601Y-71563975D01*
X118228604Y-71563980D01*
X118275195Y-71623756D01*
X118275201Y-71623763D01*
X118275346Y-71623949D01*
X118289254Y-71638899D01*
X118329315Y-71681963D01*
X118332441Y-71690354D01*
X118329022Y-71698205D01*
X118168205Y-71859022D01*
X118159932Y-71862449D01*
X118151963Y-71859315D01*
X118121318Y-71830807D01*
X118093949Y-71805346D01*
X118093763Y-71805201D01*
X118093756Y-71805195D01*
X118033980Y-71758604D01*
X118033975Y-71758601D01*
X118033737Y-71758415D01*
X118033474Y-71758251D01*
X117978109Y-71723760D01*
X117978102Y-71723756D01*
X117977824Y-71723583D01*
X117924449Y-71698222D01*
X117924163Y-71698121D01*
X117924155Y-71698118D01*
X117872068Y-71679784D01*
X117872065Y-71679783D01*
X117871846Y-71679706D01*
X117818254Y-71665407D01*
X117761914Y-71652700D01*
X117761910Y-71652697D01*
X117761910Y-71652699D01*
X117701202Y-71638987D01*
X117700843Y-71638899D01*
X117634217Y-71621624D01*
X117633637Y-71621458D01*
X117566747Y-71600373D01*
X117559886Y-71594617D01*
X117558566Y-71589443D01*
X117548817Y-71090744D01*
X117552082Y-71082405D01*
X117560744Y-71078817D01*
X118059443Y-71088566D01*
G37*
%TD.AperFunction*%
%TD*%
%TA.AperFunction,Conductor*%
%TO.N,Net-(MCP42010-Pad9)*%
G36*
X135944761Y-78028887D02*
G01*
X135948154Y-78033287D01*
X136004733Y-78160980D01*
X136400676Y-79054586D01*
X136400894Y-79063538D01*
X136394297Y-79070200D01*
X135356094Y-79482461D01*
X135347140Y-79482329D01*
X135342706Y-79478978D01*
X135230267Y-79341007D01*
X135229624Y-79340139D01*
X135190029Y-79281180D01*
X135138548Y-79204519D01*
X135138126Y-79203842D01*
X135064850Y-79076004D01*
X135064676Y-79075688D01*
X135058234Y-79063538D01*
X135000688Y-78955015D01*
X134937535Y-78841095D01*
X134866751Y-78733522D01*
X134779776Y-78631725D01*
X134668054Y-78535130D01*
X134652990Y-78525578D01*
X134523330Y-78443357D01*
X134523321Y-78443352D01*
X134523026Y-78443165D01*
X134522700Y-78443012D01*
X134522697Y-78443010D01*
X134346189Y-78359985D01*
X134340161Y-78353363D01*
X134340338Y-78344974D01*
X134426487Y-78134109D01*
X134432787Y-78127747D01*
X134441175Y-78127489D01*
X134625668Y-78191931D01*
X134626005Y-78192003D01*
X134626012Y-78192005D01*
X134793189Y-78227738D01*
X134793195Y-78227739D01*
X134793603Y-78227826D01*
X134794024Y-78227852D01*
X134794028Y-78227853D01*
X134848873Y-78231302D01*
X134941002Y-78237096D01*
X134941432Y-78237058D01*
X134941437Y-78237058D01*
X135007964Y-78231185D01*
X135074376Y-78225322D01*
X135074739Y-78225243D01*
X135074742Y-78225243D01*
X135129222Y-78213455D01*
X135200235Y-78198089D01*
X135200446Y-78198026D01*
X135200451Y-78198025D01*
X135325038Y-78160996D01*
X135325069Y-78160987D01*
X135325091Y-78160980D01*
X135325106Y-78160975D01*
X135325133Y-78160967D01*
X135400039Y-78137176D01*
X135455271Y-78119635D01*
X135455611Y-78119532D01*
X135523727Y-78100343D01*
X135597438Y-78079577D01*
X135598244Y-78079381D01*
X135678907Y-78062718D01*
X135758209Y-78046337D01*
X135759264Y-78046169D01*
X135936160Y-78026400D01*
X135944761Y-78028887D01*
G37*
%TD.AperFunction*%
%TD*%
%TA.AperFunction,Conductor*%
%TO.N,Net-(ISOLATOR1-Pad8)*%
G36*
X135561703Y-72645826D02*
G01*
X135921231Y-72991567D01*
X135924819Y-72999771D01*
X135921231Y-73008433D01*
X135561703Y-73354174D01*
X135553365Y-73357439D01*
X135548191Y-73356119D01*
X135485994Y-73323736D01*
X135485465Y-73323443D01*
X135476739Y-73318311D01*
X135426061Y-73288503D01*
X135425785Y-73288333D01*
X135373190Y-73255118D01*
X135373188Y-73255115D01*
X135373187Y-73255116D01*
X135324437Y-73224310D01*
X135324427Y-73224304D01*
X135324359Y-73224261D01*
X135276352Y-73196476D01*
X135276150Y-73196379D01*
X135276144Y-73196376D01*
X135226339Y-73172506D01*
X135226064Y-73172374D01*
X135170389Y-73152564D01*
X135144557Y-73146563D01*
X135106524Y-73137728D01*
X135106521Y-73137728D01*
X135106222Y-73137658D01*
X135105913Y-73137620D01*
X135105909Y-73137619D01*
X135061886Y-73132162D01*
X135030461Y-73128266D01*
X134974870Y-73126259D01*
X134951278Y-73125407D01*
X134943134Y-73121684D01*
X134940000Y-73113715D01*
X134940000Y-72886285D01*
X134943427Y-72878012D01*
X134951278Y-72874593D01*
X134984212Y-72873403D01*
X135030461Y-72871733D01*
X135061886Y-72867837D01*
X135105909Y-72862380D01*
X135105913Y-72862379D01*
X135106222Y-72862341D01*
X135106521Y-72862271D01*
X135106524Y-72862271D01*
X135170070Y-72847509D01*
X135170068Y-72847509D01*
X135170389Y-72847435D01*
X135226064Y-72827625D01*
X135245766Y-72818182D01*
X135276144Y-72803623D01*
X135276150Y-72803620D01*
X135276352Y-72803523D01*
X135324359Y-72775738D01*
X135373187Y-72744883D01*
X135425785Y-72711666D01*
X135426061Y-72711496D01*
X135485465Y-72676556D01*
X135485994Y-72676263D01*
X135493879Y-72672158D01*
X135548191Y-72643881D01*
X135557111Y-72643100D01*
X135561703Y-72645826D01*
G37*
%TD.AperFunction*%
%TD*%
%TA.AperFunction,Conductor*%
%TO.N,Net-(ISOLATOR1-Pad6)*%
G36*
X129691703Y-73815826D02*
G01*
X130051231Y-74161567D01*
X130054819Y-74169771D01*
X130051231Y-74178433D01*
X129691703Y-74524174D01*
X129683365Y-74527439D01*
X129678191Y-74526119D01*
X129615994Y-74493736D01*
X129615465Y-74493443D01*
X129606739Y-74488311D01*
X129556061Y-74458503D01*
X129555785Y-74458333D01*
X129503190Y-74425118D01*
X129503188Y-74425115D01*
X129503187Y-74425116D01*
X129454437Y-74394310D01*
X129454427Y-74394304D01*
X129454359Y-74394261D01*
X129406352Y-74366476D01*
X129406150Y-74366379D01*
X129406144Y-74366376D01*
X129356339Y-74342506D01*
X129356064Y-74342374D01*
X129300389Y-74322564D01*
X129274557Y-74316563D01*
X129236524Y-74307728D01*
X129236521Y-74307728D01*
X129236222Y-74307658D01*
X129235913Y-74307620D01*
X129235909Y-74307619D01*
X129191886Y-74302162D01*
X129160461Y-74298266D01*
X129104870Y-74296259D01*
X129081278Y-74295407D01*
X129073134Y-74291684D01*
X129070000Y-74283715D01*
X129070000Y-74056285D01*
X129073427Y-74048012D01*
X129081278Y-74044593D01*
X129114212Y-74043403D01*
X129160461Y-74041733D01*
X129191886Y-74037837D01*
X129235909Y-74032380D01*
X129235913Y-74032379D01*
X129236222Y-74032341D01*
X129236521Y-74032271D01*
X129236524Y-74032271D01*
X129300070Y-74017509D01*
X129300068Y-74017509D01*
X129300389Y-74017435D01*
X129356064Y-73997625D01*
X129375766Y-73988182D01*
X129406144Y-73973623D01*
X129406150Y-73973620D01*
X129406352Y-73973523D01*
X129454359Y-73945738D01*
X129503187Y-73914883D01*
X129555785Y-73881666D01*
X129556061Y-73881496D01*
X129615465Y-73846556D01*
X129615994Y-73846263D01*
X129623879Y-73842158D01*
X129678191Y-73813881D01*
X129687111Y-73813100D01*
X129691703Y-73815826D01*
G37*
%TD.AperFunction*%
%TD*%
%TA.AperFunction,Conductor*%
%TO.N,Net-(D1-Pad2)*%
G36*
X129236557Y-67784904D02*
G01*
X129237325Y-67786208D01*
X129466439Y-68240154D01*
X129469043Y-68245314D01*
X129469711Y-68254244D01*
X129466904Y-68258826D01*
X129413241Y-68312901D01*
X129362421Y-68364967D01*
X129362378Y-68365012D01*
X129317912Y-68411312D01*
X129277242Y-68454213D01*
X129277179Y-68454280D01*
X129277153Y-68454307D01*
X129237946Y-68495935D01*
X129237940Y-68495942D01*
X129197534Y-68538774D01*
X129197498Y-68538811D01*
X129156759Y-68581616D01*
X129153554Y-68584984D01*
X129103529Y-68636846D01*
X129044986Y-68696634D01*
X128983728Y-68758298D01*
X128975469Y-68761751D01*
X128967157Y-68758324D01*
X128806376Y-68597543D01*
X128802949Y-68589270D01*
X128805800Y-68581616D01*
X128844864Y-68536457D01*
X128844866Y-68536454D01*
X128845207Y-68536060D01*
X128875257Y-68485144D01*
X128885272Y-68454280D01*
X128890950Y-68436779D01*
X128891157Y-68436141D01*
X128895235Y-68388092D01*
X128889818Y-68340041D01*
X128877232Y-68291028D01*
X128859804Y-68240097D01*
X128839897Y-68186382D01*
X128839822Y-68186173D01*
X128819840Y-68128955D01*
X128819643Y-68128337D01*
X128804091Y-68074359D01*
X128805094Y-68065461D01*
X128808757Y-68061444D01*
X129220305Y-67781803D01*
X129229073Y-67779987D01*
X129236557Y-67784904D01*
G37*
%TD.AperFunction*%
%TD*%
%TA.AperFunction,Conductor*%
%TO.N,Net-(D1-Pad2)*%
G36*
X122393917Y-71870099D02*
G01*
X122448937Y-71898744D01*
X122456114Y-71902481D01*
X122456643Y-71902774D01*
X122516047Y-71937714D01*
X122516323Y-71937884D01*
X122568918Y-71971099D01*
X122568920Y-71971102D01*
X122568921Y-71971101D01*
X122617749Y-72001956D01*
X122665756Y-72029741D01*
X122665958Y-72029838D01*
X122665964Y-72029841D01*
X122696342Y-72044400D01*
X122716044Y-72053843D01*
X122771719Y-72073653D01*
X122772040Y-72073727D01*
X122772038Y-72073727D01*
X122835584Y-72088489D01*
X122835587Y-72088489D01*
X122835886Y-72088559D01*
X122836195Y-72088597D01*
X122836199Y-72088598D01*
X122880222Y-72094055D01*
X122911647Y-72097951D01*
X122958177Y-72099631D01*
X122990831Y-72100811D01*
X122998975Y-72104534D01*
X123002109Y-72112503D01*
X123002109Y-72339933D01*
X122998682Y-72348206D01*
X122990831Y-72351625D01*
X122967650Y-72352462D01*
X122911647Y-72354484D01*
X122880222Y-72358380D01*
X122836199Y-72363837D01*
X122836195Y-72363838D01*
X122835886Y-72363876D01*
X122835587Y-72363946D01*
X122835584Y-72363946D01*
X122797551Y-72372781D01*
X122771719Y-72378782D01*
X122716044Y-72398592D01*
X122715769Y-72398724D01*
X122665964Y-72422594D01*
X122665958Y-72422597D01*
X122665756Y-72422694D01*
X122617749Y-72450479D01*
X122568921Y-72481334D01*
X122516323Y-72514551D01*
X122516047Y-72514721D01*
X122465369Y-72544529D01*
X122456643Y-72549661D01*
X122456114Y-72549954D01*
X122393918Y-72582337D01*
X122384998Y-72583118D01*
X122380407Y-72580393D01*
X122020878Y-72234651D01*
X122017290Y-72226447D01*
X122020878Y-72217785D01*
X122380406Y-71872044D01*
X122388745Y-71868779D01*
X122393917Y-71870099D01*
G37*
%TD.AperFunction*%
%TD*%
M02*
