%TF.GenerationSoftware,KiCad,Pcbnew,(6.0.9)*%
%TF.CreationDate,2022-11-13T21:00:24-06:00*%
%TF.ProjectId,melodyous-micro,6d656c6f-6479-46f7-9573-2d6d6963726f,rev?*%
%TF.SameCoordinates,Original*%
%TF.FileFunction,Paste,Bot*%
%TF.FilePolarity,Positive*%
%FSLAX46Y46*%
G04 Gerber Fmt 4.6, Leading zero omitted, Abs format (unit mm)*
G04 Created by KiCad (PCBNEW (6.0.9)) date 2022-11-13 21:00:24*
%MOMM*%
%LPD*%
G01*
G04 APERTURE LIST*
G04 APERTURE END LIST*
%TO.C,G2\u002A\u002A\u002A*%
G36*
X108855171Y-70705359D02*
G01*
X108875675Y-70735906D01*
X108912911Y-70796050D01*
X108964700Y-70882119D01*
X109028862Y-70990444D01*
X109103217Y-71117353D01*
X109185585Y-71259177D01*
X109273786Y-71412245D01*
X109310520Y-71476254D01*
X109395905Y-71625168D01*
X109473953Y-71761465D01*
X109542564Y-71881469D01*
X109599640Y-71981501D01*
X109643081Y-72057886D01*
X109670788Y-72106944D01*
X109680661Y-72125000D01*
X109671425Y-72142873D01*
X109644404Y-72191529D01*
X109601811Y-72267062D01*
X109545860Y-72365573D01*
X109478766Y-72483166D01*
X109402741Y-72615941D01*
X109320000Y-72760000D01*
X108958183Y-73389032D01*
X108130000Y-73389032D01*
X107997031Y-73388978D01*
X107814354Y-73388616D01*
X107666077Y-73387804D01*
X107548755Y-73386417D01*
X107458939Y-73384331D01*
X107393183Y-73381420D01*
X107348040Y-73377559D01*
X107320063Y-73372624D01*
X107305804Y-73366490D01*
X107301818Y-73359032D01*
X107303491Y-73345299D01*
X107316818Y-73328984D01*
X107331557Y-73314466D01*
X107358522Y-73272979D01*
X107391064Y-73213984D01*
X107420863Y-73157748D01*
X107447460Y-73110798D01*
X107462106Y-73089032D01*
X107464784Y-73086104D01*
X107483519Y-73056422D01*
X107508665Y-73009032D01*
X107516430Y-72993779D01*
X107553387Y-72926148D01*
X107592969Y-72859032D01*
X107606340Y-72837219D01*
X107640002Y-72780531D01*
X107663192Y-72739032D01*
X107669940Y-72726415D01*
X107698047Y-72676818D01*
X107732228Y-72619032D01*
X107741551Y-72603333D01*
X107781821Y-72531071D01*
X107815917Y-72464032D01*
X107824671Y-72446365D01*
X107849322Y-72405399D01*
X107866536Y-72389032D01*
X107871553Y-72387727D01*
X107881817Y-72365606D01*
X107886562Y-72347042D01*
X107909309Y-72310606D01*
X107910013Y-72309781D01*
X107933315Y-72275425D01*
X107967099Y-72217840D01*
X108004309Y-72149032D01*
X108008312Y-72141338D01*
X108042019Y-72077871D01*
X108068332Y-72030518D01*
X108081849Y-72009032D01*
X108082485Y-72008345D01*
X108098248Y-71982974D01*
X108120987Y-71939032D01*
X108148127Y-71888171D01*
X108173152Y-71849032D01*
X108192797Y-71819095D01*
X108225098Y-71764704D01*
X108262082Y-71699032D01*
X108270348Y-71683976D01*
X108318401Y-71596695D01*
X108353396Y-71533881D01*
X108380649Y-71486214D01*
X108405477Y-71444371D01*
X108433199Y-71399032D01*
X108446481Y-71377191D01*
X108479527Y-71320518D01*
X108501817Y-71279032D01*
X108508455Y-71266045D01*
X108536203Y-71216550D01*
X108570666Y-71159032D01*
X108581037Y-71142015D01*
X108621393Y-71072084D01*
X108654970Y-71009032D01*
X108661405Y-70996275D01*
X108685492Y-70951961D01*
X108700807Y-70929032D01*
X108701546Y-70928303D01*
X108718266Y-70902899D01*
X108741818Y-70859032D01*
X108743717Y-70855245D01*
X108766734Y-70812275D01*
X108781786Y-70789032D01*
X108792360Y-70774844D01*
X108813997Y-70739032D01*
X108831204Y-70714930D01*
X108852122Y-70702245D01*
X108855171Y-70705359D01*
G37*
%TD*%
M02*
