%TF.GenerationSoftware,KiCad,Pcbnew,(6.0.9)*%
%TF.CreationDate,2022-11-13T21:00:24-06:00*%
%TF.ProjectId,melodyous-micro,6d656c6f-6479-46f7-9573-2d6d6963726f,rev?*%
%TF.SameCoordinates,Original*%
%TF.FileFunction,Profile,NP*%
%FSLAX46Y46*%
G04 Gerber Fmt 4.6, Leading zero omitted, Abs format (unit mm)*
G04 Created by KiCad (PCBNEW (6.0.9)) date 2022-11-13 21:00:24*
%MOMM*%
%LPD*%
G01*
G04 APERTURE LIST*
%TA.AperFunction,Profile*%
%ADD10C,0.100000*%
%TD*%
G04 APERTURE END LIST*
D10*
X136138035Y-64776865D02*
X136344117Y-64813203D01*
X104654218Y-82330595D02*
X104493915Y-82196085D01*
X137121425Y-81854557D02*
X137016795Y-82035782D01*
X136344117Y-64813203D02*
X136540757Y-64884775D01*
X104359405Y-82035782D02*
X104254775Y-81854557D01*
X105238165Y-82543135D02*
X105032083Y-82506797D01*
X136067800Y-82545320D02*
X105342795Y-82545320D01*
X104254775Y-81854557D02*
X104183203Y-81657917D01*
X104254775Y-65465443D02*
X104359405Y-65284218D01*
X104144680Y-65972795D02*
X104146865Y-65868165D01*
X104493915Y-82196085D02*
X104359405Y-82035782D01*
X104493915Y-65123915D02*
X104654218Y-64989405D01*
X104835443Y-82435225D02*
X104654218Y-82330595D01*
X136540757Y-82435225D02*
X136344117Y-82506797D01*
X104835443Y-64884775D02*
X105032083Y-64813203D01*
X137016795Y-82035782D02*
X136882285Y-82196085D01*
X137192997Y-65662083D02*
X137229335Y-65868165D01*
X136066601Y-82544627D02*
X136067800Y-82545320D01*
X137231520Y-81347205D02*
X137229335Y-81451835D01*
X137229335Y-81451835D02*
X137192997Y-81657917D01*
X137016795Y-65284218D02*
X137121425Y-65465443D01*
X104183203Y-65662083D02*
X104254775Y-65465443D01*
X105342795Y-82545320D02*
X105238165Y-82543135D01*
X136882285Y-82196085D02*
X136721982Y-82330595D01*
X137121425Y-65465443D02*
X137192997Y-65662083D01*
X104146865Y-65868165D02*
X104183203Y-65662083D01*
X104654218Y-64989405D02*
X104835443Y-64884775D01*
X105238165Y-64776865D02*
X105309599Y-64775373D01*
X137229335Y-65868165D02*
X137231520Y-65972795D01*
X105308400Y-64774680D02*
X136033405Y-64774680D01*
X136721982Y-82330595D02*
X136540757Y-82435225D01*
X105309599Y-64775373D02*
X105308400Y-64774680D01*
X137192997Y-81657917D02*
X137121425Y-81854557D01*
X136344117Y-82506797D02*
X136138035Y-82543135D01*
X105032083Y-82506797D02*
X104835443Y-82435225D01*
X137231520Y-65972795D02*
X137231520Y-81347205D01*
X104144680Y-81347205D02*
X104144680Y-65972795D01*
X136540757Y-64884775D02*
X136721982Y-64989405D01*
X104183203Y-81657917D02*
X104146865Y-81451835D01*
X104359405Y-65284218D02*
X104493915Y-65123915D01*
X136138035Y-82543135D02*
X136066601Y-82544627D01*
X105032083Y-64813203D02*
X105238165Y-64776865D01*
X136033405Y-64774680D02*
X136138035Y-64776865D01*
X136721982Y-64989405D02*
X136882285Y-65123915D01*
X104146865Y-81451835D02*
X104144680Y-81347205D01*
X136882285Y-65123915D02*
X137016795Y-65284218D01*
M02*
