%TF.GenerationSoftware,KiCad,Pcbnew,(6.0.9)*%
%TF.CreationDate,2022-11-13T21:00:24-06:00*%
%TF.ProjectId,melodyous-micro,6d656c6f-6479-46f7-9573-2d6d6963726f,rev?*%
%TF.SameCoordinates,Original*%
%TF.FileFunction,Legend,Top*%
%TF.FilePolarity,Positive*%
%FSLAX46Y46*%
G04 Gerber Fmt 4.6, Leading zero omitted, Abs format (unit mm)*
G04 Created by KiCad (PCBNEW (6.0.9)) date 2022-11-13 21:00:24*
%MOMM*%
%LPD*%
G01*
G04 APERTURE LIST*
G04 Aperture macros list*
%AMFreePoly0*
4,1,17,0.377620,0.861655,0.861655,0.377620,0.876300,0.342265,0.876300,-0.342265,0.861655,-0.377620,0.377620,-0.861655,0.342265,-0.876300,-0.342265,-0.876300,-0.377620,-0.861655,-0.861655,-0.377620,-0.876300,-0.342265,-0.876300,0.342265,-0.861655,0.377620,-0.377620,0.861655,-0.342265,0.876300,0.342265,0.876300,0.377620,0.861655,0.377620,0.861655,$1*%
G04 Aperture macros list end*
%ADD10C,0.075000*%
%ADD11C,0.125000*%
%ADD12C,0.150000*%
%ADD13C,0.100000*%
%ADD14C,0.120000*%
%ADD15C,0.381000*%
%ADD16R,3.000000X1.752600*%
%ADD17O,3.000000X1.752600*%
%ADD18O,1.752600X3.000000*%
%ADD19R,1.752600X3.000000*%
%ADD20FreePoly0,0.000000*%
G04 APERTURE END LIST*
D10*
X109563333Y-77214214D02*
X109563333Y-76914214D01*
X109563333Y-77028500D02*
X109610952Y-77014214D01*
X109706190Y-77014214D01*
X109753809Y-77028500D01*
X109777619Y-77042785D01*
X109801428Y-77071357D01*
X109801428Y-77157071D01*
X109777619Y-77185642D01*
X109753809Y-77199928D01*
X109706190Y-77214214D01*
X109610952Y-77214214D01*
X109563333Y-77199928D01*
X110015714Y-77214214D02*
X110015714Y-77014214D01*
X110015714Y-77071357D02*
X110039523Y-77042785D01*
X110063333Y-77028500D01*
X110110952Y-77014214D01*
X110158571Y-77014214D01*
X110325238Y-77214214D02*
X110325238Y-77014214D01*
X110325238Y-76914214D02*
X110301428Y-76928500D01*
X110325238Y-76942785D01*
X110349047Y-76928500D01*
X110325238Y-76914214D01*
X110325238Y-76942785D01*
X110777619Y-77214214D02*
X110777619Y-76914214D01*
X110777619Y-77199928D02*
X110730000Y-77214214D01*
X110634761Y-77214214D01*
X110587142Y-77199928D01*
X110563333Y-77185642D01*
X110539523Y-77157071D01*
X110539523Y-77071357D01*
X110563333Y-77042785D01*
X110587142Y-77028500D01*
X110634761Y-77014214D01*
X110730000Y-77014214D01*
X110777619Y-77028500D01*
X111230000Y-77014214D02*
X111230000Y-77257071D01*
X111206190Y-77285642D01*
X111182380Y-77299928D01*
X111134761Y-77314214D01*
X111063333Y-77314214D01*
X111015714Y-77299928D01*
X111230000Y-77199928D02*
X111182380Y-77214214D01*
X111087142Y-77214214D01*
X111039523Y-77199928D01*
X111015714Y-77185642D01*
X110991904Y-77157071D01*
X110991904Y-77071357D01*
X111015714Y-77042785D01*
X111039523Y-77028500D01*
X111087142Y-77014214D01*
X111182380Y-77014214D01*
X111230000Y-77028500D01*
X111658571Y-77199928D02*
X111610952Y-77214214D01*
X111515714Y-77214214D01*
X111468095Y-77199928D01*
X111444285Y-77171357D01*
X111444285Y-77057071D01*
X111468095Y-77028500D01*
X111515714Y-77014214D01*
X111610952Y-77014214D01*
X111658571Y-77028500D01*
X111682380Y-77057071D01*
X111682380Y-77085642D01*
X111444285Y-77114214D01*
X112515714Y-76914214D02*
X112277619Y-76914214D01*
X112253809Y-77057071D01*
X112277619Y-77042785D01*
X112325238Y-77028500D01*
X112444285Y-77028500D01*
X112491904Y-77042785D01*
X112515714Y-77057071D01*
X112539523Y-77085642D01*
X112539523Y-77157071D01*
X112515714Y-77185642D01*
X112491904Y-77199928D01*
X112444285Y-77214214D01*
X112325238Y-77214214D01*
X112277619Y-77199928D01*
X112253809Y-77185642D01*
X112706190Y-77014214D02*
X112825238Y-77214214D01*
X112944285Y-77014214D01*
X110122857Y-77682928D02*
X110170476Y-77697214D01*
X110265714Y-77697214D01*
X110313333Y-77682928D01*
X110337142Y-77654357D01*
X110337142Y-77640071D01*
X110313333Y-77611500D01*
X110265714Y-77597214D01*
X110194285Y-77597214D01*
X110146666Y-77582928D01*
X110122857Y-77554357D01*
X110122857Y-77540071D01*
X110146666Y-77511500D01*
X110194285Y-77497214D01*
X110265714Y-77497214D01*
X110313333Y-77511500D01*
X110765714Y-77497214D02*
X110765714Y-77697214D01*
X110551428Y-77497214D02*
X110551428Y-77654357D01*
X110575238Y-77682928D01*
X110622857Y-77697214D01*
X110694285Y-77697214D01*
X110741904Y-77682928D01*
X110765714Y-77668642D01*
X111003809Y-77497214D02*
X111003809Y-77797214D01*
X111003809Y-77511500D02*
X111051428Y-77497214D01*
X111146666Y-77497214D01*
X111194285Y-77511500D01*
X111218095Y-77525785D01*
X111241904Y-77554357D01*
X111241904Y-77640071D01*
X111218095Y-77668642D01*
X111194285Y-77682928D01*
X111146666Y-77697214D01*
X111051428Y-77697214D01*
X111003809Y-77682928D01*
X111456190Y-77497214D02*
X111456190Y-77797214D01*
X111456190Y-77511500D02*
X111503809Y-77497214D01*
X111599047Y-77497214D01*
X111646666Y-77511500D01*
X111670476Y-77525785D01*
X111694285Y-77554357D01*
X111694285Y-77640071D01*
X111670476Y-77668642D01*
X111646666Y-77682928D01*
X111599047Y-77697214D01*
X111503809Y-77697214D01*
X111456190Y-77682928D01*
X111980000Y-77697214D02*
X111932380Y-77682928D01*
X111908571Y-77654357D01*
X111908571Y-77397214D01*
X112122857Y-77497214D02*
X112241904Y-77697214D01*
X112360952Y-77497214D02*
X112241904Y-77697214D01*
X112194285Y-77768642D01*
X112170476Y-77782928D01*
X112122857Y-77797214D01*
X105262714Y-80566666D02*
X105062714Y-80566666D01*
X105091285Y-80566666D02*
X105077000Y-80542857D01*
X105062714Y-80495238D01*
X105062714Y-80423809D01*
X105077000Y-80376190D01*
X105105571Y-80352380D01*
X105262714Y-80352380D01*
X105105571Y-80352380D02*
X105077000Y-80328571D01*
X105062714Y-80280952D01*
X105062714Y-80209523D01*
X105077000Y-80161904D01*
X105105571Y-80138095D01*
X105262714Y-80138095D01*
X105262714Y-79900000D02*
X105062714Y-79900000D01*
X104962714Y-79900000D02*
X104977000Y-79923809D01*
X104991285Y-79900000D01*
X104977000Y-79876190D01*
X104962714Y-79900000D01*
X104991285Y-79900000D01*
X105262714Y-79447619D02*
X104962714Y-79447619D01*
X105248428Y-79447619D02*
X105262714Y-79495238D01*
X105262714Y-79590476D01*
X105248428Y-79638095D01*
X105234142Y-79661904D01*
X105205571Y-79685714D01*
X105119857Y-79685714D01*
X105091285Y-79661904D01*
X105077000Y-79638095D01*
X105062714Y-79590476D01*
X105062714Y-79495238D01*
X105077000Y-79447619D01*
X105262714Y-79209523D02*
X105062714Y-79209523D01*
X104962714Y-79209523D02*
X104977000Y-79233333D01*
X104991285Y-79209523D01*
X104977000Y-79185714D01*
X104962714Y-79209523D01*
X104991285Y-79209523D01*
X105248428Y-78614285D02*
X105262714Y-78566666D01*
X105262714Y-78471428D01*
X105248428Y-78423809D01*
X105219857Y-78400000D01*
X105205571Y-78400000D01*
X105177000Y-78423809D01*
X105162714Y-78471428D01*
X105162714Y-78542857D01*
X105148428Y-78590476D01*
X105119857Y-78614285D01*
X105105571Y-78614285D01*
X105077000Y-78590476D01*
X105062714Y-78542857D01*
X105062714Y-78471428D01*
X105077000Y-78423809D01*
X105248428Y-77995238D02*
X105262714Y-78042857D01*
X105262714Y-78138095D01*
X105248428Y-78185714D01*
X105219857Y-78209523D01*
X105105571Y-78209523D01*
X105077000Y-78185714D01*
X105062714Y-78138095D01*
X105062714Y-78042857D01*
X105077000Y-77995238D01*
X105105571Y-77971428D01*
X105134142Y-77971428D01*
X105162714Y-78209523D01*
X105262714Y-77757142D02*
X105062714Y-77757142D01*
X105119857Y-77757142D02*
X105091285Y-77733333D01*
X105077000Y-77709523D01*
X105062714Y-77661904D01*
X105062714Y-77614285D01*
X105262714Y-77447619D02*
X105062714Y-77447619D01*
X104962714Y-77447619D02*
X104977000Y-77471428D01*
X104991285Y-77447619D01*
X104977000Y-77423809D01*
X104962714Y-77447619D01*
X104991285Y-77447619D01*
X105262714Y-76995238D02*
X105105571Y-76995238D01*
X105077000Y-77019047D01*
X105062714Y-77066666D01*
X105062714Y-77161904D01*
X105077000Y-77209523D01*
X105248428Y-76995238D02*
X105262714Y-77042857D01*
X105262714Y-77161904D01*
X105248428Y-77209523D01*
X105219857Y-77233333D01*
X105191285Y-77233333D01*
X105162714Y-77209523D01*
X105148428Y-77161904D01*
X105148428Y-77042857D01*
X105134142Y-76995238D01*
X105262714Y-76685714D02*
X105248428Y-76733333D01*
X105219857Y-76757142D01*
X104962714Y-76757142D01*
X105445714Y-80864285D02*
X105445714Y-80554761D01*
X105560000Y-80721428D01*
X105560000Y-80650000D01*
X105574285Y-80602380D01*
X105588571Y-80578571D01*
X105617142Y-80554761D01*
X105688571Y-80554761D01*
X105717142Y-80578571D01*
X105731428Y-80602380D01*
X105745714Y-80650000D01*
X105745714Y-80792857D01*
X105731428Y-80840476D01*
X105717142Y-80864285D01*
X105745714Y-80078571D02*
X105745714Y-80364285D01*
X105745714Y-80221428D02*
X105445714Y-80221428D01*
X105488571Y-80269047D01*
X105517142Y-80316666D01*
X105531428Y-80364285D01*
X105474285Y-79888095D02*
X105460000Y-79864285D01*
X105445714Y-79816666D01*
X105445714Y-79697619D01*
X105460000Y-79650000D01*
X105474285Y-79626190D01*
X105502857Y-79602380D01*
X105531428Y-79602380D01*
X105574285Y-79626190D01*
X105745714Y-79911904D01*
X105745714Y-79602380D01*
X105445714Y-79150000D02*
X105445714Y-79388095D01*
X105588571Y-79411904D01*
X105574285Y-79388095D01*
X105560000Y-79340476D01*
X105560000Y-79221428D01*
X105574285Y-79173809D01*
X105588571Y-79150000D01*
X105617142Y-79126190D01*
X105688571Y-79126190D01*
X105717142Y-79150000D01*
X105731428Y-79173809D01*
X105745714Y-79221428D01*
X105745714Y-79340476D01*
X105731428Y-79388095D01*
X105717142Y-79411904D01*
X105445714Y-78816666D02*
X105445714Y-78769047D01*
X105460000Y-78721428D01*
X105474285Y-78697619D01*
X105502857Y-78673809D01*
X105560000Y-78650000D01*
X105631428Y-78650000D01*
X105688571Y-78673809D01*
X105717142Y-78697619D01*
X105731428Y-78721428D01*
X105745714Y-78769047D01*
X105745714Y-78816666D01*
X105731428Y-78864285D01*
X105717142Y-78888095D01*
X105688571Y-78911904D01*
X105631428Y-78935714D01*
X105560000Y-78935714D01*
X105502857Y-78911904D01*
X105474285Y-78888095D01*
X105460000Y-78864285D01*
X105445714Y-78816666D01*
X105745714Y-78054761D02*
X105445714Y-78054761D01*
X105560000Y-78054761D02*
X105545714Y-78007142D01*
X105545714Y-77911904D01*
X105560000Y-77864285D01*
X105574285Y-77840476D01*
X105602857Y-77816666D01*
X105688571Y-77816666D01*
X105717142Y-77840476D01*
X105731428Y-77864285D01*
X105745714Y-77911904D01*
X105745714Y-78007142D01*
X105731428Y-78054761D01*
X105745714Y-77388095D02*
X105588571Y-77388095D01*
X105560000Y-77411904D01*
X105545714Y-77459523D01*
X105545714Y-77554761D01*
X105560000Y-77602380D01*
X105731428Y-77388095D02*
X105745714Y-77435714D01*
X105745714Y-77554761D01*
X105731428Y-77602380D01*
X105702857Y-77626190D01*
X105674285Y-77626190D01*
X105645714Y-77602380D01*
X105631428Y-77554761D01*
X105631428Y-77435714D01*
X105617142Y-77388095D01*
X105545714Y-76935714D02*
X105745714Y-76935714D01*
X105545714Y-77150000D02*
X105702857Y-77150000D01*
X105731428Y-77126190D01*
X105745714Y-77078571D01*
X105745714Y-77007142D01*
X105731428Y-76959523D01*
X105717142Y-76935714D01*
X105745714Y-76483333D02*
X105445714Y-76483333D01*
X105731428Y-76483333D02*
X105745714Y-76530952D01*
X105745714Y-76626190D01*
X105731428Y-76673809D01*
X105717142Y-76697619D01*
X105688571Y-76721428D01*
X105602857Y-76721428D01*
X105574285Y-76697619D01*
X105560000Y-76673809D01*
X105545714Y-76626190D01*
X105545714Y-76530952D01*
X105560000Y-76483333D01*
X106228714Y-80019047D02*
X106028714Y-80019047D01*
X105928714Y-80019047D02*
X105943000Y-80042857D01*
X105957285Y-80019047D01*
X105943000Y-79995238D01*
X105928714Y-80019047D01*
X105957285Y-80019047D01*
X106214428Y-79804761D02*
X106228714Y-79757142D01*
X106228714Y-79661904D01*
X106214428Y-79614285D01*
X106185857Y-79590476D01*
X106171571Y-79590476D01*
X106143000Y-79614285D01*
X106128714Y-79661904D01*
X106128714Y-79733333D01*
X106114428Y-79780952D01*
X106085857Y-79804761D01*
X106071571Y-79804761D01*
X106043000Y-79780952D01*
X106028714Y-79733333D01*
X106028714Y-79661904D01*
X106043000Y-79614285D01*
X106228714Y-79304761D02*
X106214428Y-79352380D01*
X106200142Y-79376190D01*
X106171571Y-79400000D01*
X106085857Y-79400000D01*
X106057285Y-79376190D01*
X106043000Y-79352380D01*
X106028714Y-79304761D01*
X106028714Y-79233333D01*
X106043000Y-79185714D01*
X106057285Y-79161904D01*
X106085857Y-79138095D01*
X106171571Y-79138095D01*
X106200142Y-79161904D01*
X106214428Y-79185714D01*
X106228714Y-79233333D01*
X106228714Y-79304761D01*
X106228714Y-78852380D02*
X106214428Y-78900000D01*
X106185857Y-78923809D01*
X105928714Y-78923809D01*
X106228714Y-78447619D02*
X106071571Y-78447619D01*
X106043000Y-78471428D01*
X106028714Y-78519047D01*
X106028714Y-78614285D01*
X106043000Y-78661904D01*
X106214428Y-78447619D02*
X106228714Y-78495238D01*
X106228714Y-78614285D01*
X106214428Y-78661904D01*
X106185857Y-78685714D01*
X106157285Y-78685714D01*
X106128714Y-78661904D01*
X106114428Y-78614285D01*
X106114428Y-78495238D01*
X106100142Y-78447619D01*
X106028714Y-78280952D02*
X106028714Y-78090476D01*
X105928714Y-78209523D02*
X106185857Y-78209523D01*
X106214428Y-78185714D01*
X106228714Y-78138095D01*
X106228714Y-78090476D01*
X106214428Y-77733333D02*
X106228714Y-77780952D01*
X106228714Y-77876190D01*
X106214428Y-77923809D01*
X106185857Y-77947619D01*
X106071571Y-77947619D01*
X106043000Y-77923809D01*
X106028714Y-77876190D01*
X106028714Y-77780952D01*
X106043000Y-77733333D01*
X106071571Y-77709523D01*
X106100142Y-77709523D01*
X106128714Y-77947619D01*
X106228714Y-77280952D02*
X105928714Y-77280952D01*
X106214428Y-77280952D02*
X106228714Y-77328571D01*
X106228714Y-77423809D01*
X106214428Y-77471428D01*
X106200142Y-77495238D01*
X106171571Y-77519047D01*
X106085857Y-77519047D01*
X106057285Y-77495238D01*
X106043000Y-77471428D01*
X106028714Y-77423809D01*
X106028714Y-77328571D01*
X106043000Y-77280952D01*
X104713333Y-68392380D02*
X104760952Y-68416190D01*
X104856190Y-68416190D01*
X104903809Y-68392380D01*
X104927619Y-68344761D01*
X104927619Y-68320952D01*
X104903809Y-68273333D01*
X104856190Y-68249523D01*
X104784761Y-68249523D01*
X104737142Y-68225714D01*
X104713333Y-68178095D01*
X104713333Y-68154285D01*
X104737142Y-68106666D01*
X104784761Y-68082857D01*
X104856190Y-68082857D01*
X104903809Y-68106666D01*
X105356190Y-68082857D02*
X105356190Y-68416190D01*
X105141904Y-68082857D02*
X105141904Y-68344761D01*
X105165714Y-68392380D01*
X105213333Y-68416190D01*
X105284761Y-68416190D01*
X105332380Y-68392380D01*
X105356190Y-68368571D01*
X105594285Y-68082857D02*
X105594285Y-68582857D01*
X105594285Y-68106666D02*
X105641904Y-68082857D01*
X105737142Y-68082857D01*
X105784761Y-68106666D01*
X105808571Y-68130476D01*
X105832380Y-68178095D01*
X105832380Y-68320952D01*
X105808571Y-68368571D01*
X105784761Y-68392380D01*
X105737142Y-68416190D01*
X105641904Y-68416190D01*
X105594285Y-68392380D01*
X106237142Y-68392380D02*
X106189523Y-68416190D01*
X106094285Y-68416190D01*
X106046666Y-68392380D01*
X106022857Y-68344761D01*
X106022857Y-68154285D01*
X106046666Y-68106666D01*
X106094285Y-68082857D01*
X106189523Y-68082857D01*
X106237142Y-68106666D01*
X106260952Y-68154285D01*
X106260952Y-68201904D01*
X106022857Y-68249523D01*
X106475238Y-68416190D02*
X106475238Y-68082857D01*
X106475238Y-68178095D02*
X106499047Y-68130476D01*
X106522857Y-68106666D01*
X106570476Y-68082857D01*
X106618095Y-68082857D01*
X106760952Y-68392380D02*
X106808571Y-68416190D01*
X106903809Y-68416190D01*
X106951428Y-68392380D01*
X106975238Y-68344761D01*
X106975238Y-68320952D01*
X106951428Y-68273333D01*
X106903809Y-68249523D01*
X106832380Y-68249523D01*
X106784761Y-68225714D01*
X106760952Y-68178095D01*
X106760952Y-68154285D01*
X106784761Y-68106666D01*
X106832380Y-68082857D01*
X106903809Y-68082857D01*
X106951428Y-68106666D01*
X107141904Y-68082857D02*
X107237142Y-68416190D01*
X107332380Y-68178095D01*
X107427619Y-68416190D01*
X107522857Y-68082857D01*
X107903809Y-68392380D02*
X107856190Y-68416190D01*
X107760952Y-68416190D01*
X107713333Y-68392380D01*
X107689523Y-68344761D01*
X107689523Y-68154285D01*
X107713333Y-68106666D01*
X107760952Y-68082857D01*
X107856190Y-68082857D01*
X107903809Y-68106666D01*
X107927619Y-68154285D01*
X107927619Y-68201904D01*
X107689523Y-68249523D01*
X108332380Y-68392380D02*
X108284761Y-68416190D01*
X108189523Y-68416190D01*
X108141904Y-68392380D01*
X108118095Y-68344761D01*
X108118095Y-68154285D01*
X108141904Y-68106666D01*
X108189523Y-68082857D01*
X108284761Y-68082857D01*
X108332380Y-68106666D01*
X108356190Y-68154285D01*
X108356190Y-68201904D01*
X108118095Y-68249523D01*
X108499047Y-68082857D02*
X108689523Y-68082857D01*
X108570476Y-67916190D02*
X108570476Y-68344761D01*
X108594285Y-68392380D01*
X108641904Y-68416190D01*
X108689523Y-68416190D01*
X108856190Y-68368571D02*
X108880000Y-68392380D01*
X108856190Y-68416190D01*
X108832380Y-68392380D01*
X108856190Y-68368571D01*
X108856190Y-68416190D01*
X109308571Y-68416190D02*
X109308571Y-67916190D01*
X109308571Y-68392380D02*
X109260952Y-68416190D01*
X109165714Y-68416190D01*
X109118095Y-68392380D01*
X109094285Y-68368571D01*
X109070476Y-68320952D01*
X109070476Y-68178095D01*
X109094285Y-68130476D01*
X109118095Y-68106666D01*
X109165714Y-68082857D01*
X109260952Y-68082857D01*
X109308571Y-68106666D01*
X109737142Y-68392380D02*
X109689523Y-68416190D01*
X109594285Y-68416190D01*
X109546666Y-68392380D01*
X109522857Y-68344761D01*
X109522857Y-68154285D01*
X109546666Y-68106666D01*
X109594285Y-68082857D01*
X109689523Y-68082857D01*
X109737142Y-68106666D01*
X109760952Y-68154285D01*
X109760952Y-68201904D01*
X109522857Y-68249523D01*
X109927619Y-68082857D02*
X110046666Y-68416190D01*
X110165714Y-68082857D01*
X110332380Y-67963809D02*
X110356190Y-67940000D01*
X110403809Y-67916190D01*
X110522857Y-67916190D01*
X110570476Y-67940000D01*
X110594285Y-67963809D01*
X110618095Y-68011428D01*
X110618095Y-68059047D01*
X110594285Y-68130476D01*
X110308571Y-68416190D01*
X110618095Y-68416190D01*
X110927619Y-67916190D02*
X110975238Y-67916190D01*
X111022857Y-67940000D01*
X111046666Y-67963809D01*
X111070476Y-68011428D01*
X111094285Y-68106666D01*
X111094285Y-68225714D01*
X111070476Y-68320952D01*
X111046666Y-68368571D01*
X111022857Y-68392380D01*
X110975238Y-68416190D01*
X110927619Y-68416190D01*
X110880000Y-68392380D01*
X110856190Y-68368571D01*
X110832380Y-68320952D01*
X110808571Y-68225714D01*
X110808571Y-68106666D01*
X110832380Y-68011428D01*
X110856190Y-67963809D01*
X110880000Y-67940000D01*
X110927619Y-67916190D01*
X111284761Y-67963809D02*
X111308571Y-67940000D01*
X111356190Y-67916190D01*
X111475238Y-67916190D01*
X111522857Y-67940000D01*
X111546666Y-67963809D01*
X111570476Y-68011428D01*
X111570476Y-68059047D01*
X111546666Y-68130476D01*
X111260952Y-68416190D01*
X111570476Y-68416190D01*
X111760952Y-67963809D02*
X111784761Y-67940000D01*
X111832380Y-67916190D01*
X111951428Y-67916190D01*
X111999047Y-67940000D01*
X112022857Y-67963809D01*
X112046666Y-68011428D01*
X112046666Y-68059047D01*
X112022857Y-68130476D01*
X111737142Y-68416190D01*
X112046666Y-68416190D01*
D11*
%TO.C,MCP42010*%
X131214666Y-78785342D02*
X130514666Y-78785342D01*
X131014666Y-78618676D01*
X130514666Y-78452009D01*
X131214666Y-78452009D01*
X131148000Y-77928200D02*
X131181333Y-77952009D01*
X131214666Y-78023438D01*
X131214666Y-78071057D01*
X131181333Y-78142485D01*
X131114666Y-78190104D01*
X131048000Y-78213914D01*
X130914666Y-78237723D01*
X130814666Y-78237723D01*
X130681333Y-78213914D01*
X130614666Y-78190104D01*
X130548000Y-78142485D01*
X130514666Y-78071057D01*
X130514666Y-78023438D01*
X130548000Y-77952009D01*
X130581333Y-77928200D01*
X131214666Y-77713914D02*
X130514666Y-77713914D01*
X130514666Y-77523438D01*
X130548000Y-77475819D01*
X130581333Y-77452009D01*
X130648000Y-77428200D01*
X130748000Y-77428200D01*
X130814666Y-77452009D01*
X130848000Y-77475819D01*
X130881333Y-77523438D01*
X130881333Y-77713914D01*
X130748000Y-76999628D02*
X131214666Y-76999628D01*
X130481333Y-77118676D02*
X130981333Y-77237723D01*
X130981333Y-76928200D01*
X130581333Y-76761533D02*
X130548000Y-76737723D01*
X130514666Y-76690104D01*
X130514666Y-76571057D01*
X130548000Y-76523438D01*
X130581333Y-76499628D01*
X130648000Y-76475819D01*
X130714666Y-76475819D01*
X130814666Y-76499628D01*
X131214666Y-76785342D01*
X131214666Y-76475819D01*
X130514666Y-76166295D02*
X130514666Y-76118676D01*
X130548000Y-76071057D01*
X130581333Y-76047247D01*
X130648000Y-76023438D01*
X130781333Y-75999628D01*
X130948000Y-75999628D01*
X131081333Y-76023438D01*
X131148000Y-76047247D01*
X131181333Y-76071057D01*
X131214666Y-76118676D01*
X131214666Y-76166295D01*
X131181333Y-76213914D01*
X131148000Y-76237723D01*
X131081333Y-76261533D01*
X130948000Y-76285342D01*
X130781333Y-76285342D01*
X130648000Y-76261533D01*
X130581333Y-76237723D01*
X130548000Y-76213914D01*
X130514666Y-76166295D01*
X131214666Y-75523438D02*
X131214666Y-75809152D01*
X131214666Y-75666295D02*
X130514666Y-75666295D01*
X130614666Y-75713914D01*
X130681333Y-75761533D01*
X130714666Y-75809152D01*
X130514666Y-75213914D02*
X130514666Y-75166295D01*
X130548000Y-75118676D01*
X130581333Y-75094866D01*
X130648000Y-75071057D01*
X130781333Y-75047247D01*
X130948000Y-75047247D01*
X131081333Y-75071057D01*
X131148000Y-75094866D01*
X131181333Y-75118676D01*
X131214666Y-75166295D01*
X131214666Y-75213914D01*
X131181333Y-75261533D01*
X131148000Y-75285342D01*
X131081333Y-75309152D01*
X130948000Y-75332961D01*
X130781333Y-75332961D01*
X130648000Y-75309152D01*
X130581333Y-75285342D01*
X130548000Y-75261533D01*
X130514666Y-75213914D01*
D12*
%TO.C,R1*%
X130120000Y-73331428D02*
X129920000Y-73045714D01*
X129777142Y-73331428D02*
X129777142Y-72731428D01*
X130005714Y-72731428D01*
X130062857Y-72760000D01*
X130091428Y-72788571D01*
X130120000Y-72845714D01*
X130120000Y-72931428D01*
X130091428Y-72988571D01*
X130062857Y-73017142D01*
X130005714Y-73045714D01*
X129777142Y-73045714D01*
X130691428Y-73331428D02*
X130348571Y-73331428D01*
X130520000Y-73331428D02*
X130520000Y-72731428D01*
X130462857Y-72817142D01*
X130405714Y-72874285D01*
X130348571Y-72902857D01*
%TO.C,ISOLATOR1*%
X118065114Y-74625580D02*
X118065114Y-73625580D01*
X118493685Y-74577961D02*
X118636542Y-74625580D01*
X118874638Y-74625580D01*
X118969876Y-74577961D01*
X119017495Y-74530342D01*
X119065114Y-74435104D01*
X119065114Y-74339866D01*
X119017495Y-74244628D01*
X118969876Y-74197009D01*
X118874638Y-74149390D01*
X118684161Y-74101771D01*
X118588923Y-74054152D01*
X118541304Y-74006533D01*
X118493685Y-73911295D01*
X118493685Y-73816057D01*
X118541304Y-73720819D01*
X118588923Y-73673200D01*
X118684161Y-73625580D01*
X118922257Y-73625580D01*
X119065114Y-73673200D01*
X119684161Y-73625580D02*
X119874638Y-73625580D01*
X119969876Y-73673200D01*
X120065114Y-73768438D01*
X120112733Y-73958914D01*
X120112733Y-74292247D01*
X120065114Y-74482723D01*
X119969876Y-74577961D01*
X119874638Y-74625580D01*
X119684161Y-74625580D01*
X119588923Y-74577961D01*
X119493685Y-74482723D01*
X119446066Y-74292247D01*
X119446066Y-73958914D01*
X119493685Y-73768438D01*
X119588923Y-73673200D01*
X119684161Y-73625580D01*
X121017495Y-74625580D02*
X120541304Y-74625580D01*
X120541304Y-73625580D01*
X121303209Y-74339866D02*
X121779400Y-74339866D01*
X121207971Y-74625580D02*
X121541304Y-73625580D01*
X121874638Y-74625580D01*
X122065114Y-73625580D02*
X122636542Y-73625580D01*
X122350828Y-74625580D02*
X122350828Y-73625580D01*
X123160352Y-73625580D02*
X123350828Y-73625580D01*
X123446066Y-73673200D01*
X123541304Y-73768438D01*
X123588923Y-73958914D01*
X123588923Y-74292247D01*
X123541304Y-74482723D01*
X123446066Y-74577961D01*
X123350828Y-74625580D01*
X123160352Y-74625580D01*
X123065114Y-74577961D01*
X122969876Y-74482723D01*
X122922257Y-74292247D01*
X122922257Y-73958914D01*
X122969876Y-73768438D01*
X123065114Y-73673200D01*
X123160352Y-73625580D01*
X124588923Y-74625580D02*
X124255590Y-74149390D01*
X124017495Y-74625580D02*
X124017495Y-73625580D01*
X124398447Y-73625580D01*
X124493685Y-73673200D01*
X124541304Y-73720819D01*
X124588923Y-73816057D01*
X124588923Y-73958914D01*
X124541304Y-74054152D01*
X124493685Y-74101771D01*
X124398447Y-74149390D01*
X124017495Y-74149390D01*
X125541304Y-74625580D02*
X124969876Y-74625580D01*
X125255590Y-74625580D02*
X125255590Y-73625580D01*
X125160352Y-73768438D01*
X125065114Y-73863676D01*
X124969876Y-73911295D01*
%TO.C,R2*%
X115146828Y-70495400D02*
X114861114Y-70695400D01*
X115146828Y-70838257D02*
X114546828Y-70838257D01*
X114546828Y-70609685D01*
X114575400Y-70552542D01*
X114603971Y-70523971D01*
X114661114Y-70495400D01*
X114746828Y-70495400D01*
X114803971Y-70523971D01*
X114832542Y-70552542D01*
X114861114Y-70609685D01*
X114861114Y-70838257D01*
X114603971Y-70266828D02*
X114575400Y-70238257D01*
X114546828Y-70181114D01*
X114546828Y-70038257D01*
X114575400Y-69981114D01*
X114603971Y-69952542D01*
X114661114Y-69923971D01*
X114718257Y-69923971D01*
X114803971Y-69952542D01*
X115146828Y-70295400D01*
X115146828Y-69923971D01*
%TO.C,R3*%
X133000000Y-67931428D02*
X132800000Y-67645714D01*
X132657142Y-67931428D02*
X132657142Y-67331428D01*
X132885714Y-67331428D01*
X132942857Y-67360000D01*
X132971428Y-67388571D01*
X133000000Y-67445714D01*
X133000000Y-67531428D01*
X132971428Y-67588571D01*
X132942857Y-67617142D01*
X132885714Y-67645714D01*
X132657142Y-67645714D01*
X133200000Y-67331428D02*
X133571428Y-67331428D01*
X133371428Y-67560000D01*
X133457142Y-67560000D01*
X133514285Y-67588571D01*
X133542857Y-67617142D01*
X133571428Y-67674285D01*
X133571428Y-67817142D01*
X133542857Y-67874285D01*
X133514285Y-67902857D01*
X133457142Y-67931428D01*
X133285714Y-67931428D01*
X133228571Y-67902857D01*
X133200000Y-67874285D01*
%TO.C,J1*%
X134761428Y-70244285D02*
X134361428Y-70244285D01*
X134418571Y-70244285D02*
X134390000Y-70215714D01*
X134361428Y-70158571D01*
X134361428Y-70072857D01*
X134390000Y-70015714D01*
X134447142Y-69987142D01*
X134761428Y-69987142D01*
X134447142Y-69987142D02*
X134390000Y-69958571D01*
X134361428Y-69901428D01*
X134361428Y-69815714D01*
X134390000Y-69758571D01*
X134447142Y-69730000D01*
X134761428Y-69730000D01*
X134761428Y-69444285D02*
X134361428Y-69444285D01*
X134161428Y-69444285D02*
X134190000Y-69472857D01*
X134218571Y-69444285D01*
X134190000Y-69415714D01*
X134161428Y-69444285D01*
X134218571Y-69444285D01*
X134761428Y-68901428D02*
X134161428Y-68901428D01*
X134732857Y-68901428D02*
X134761428Y-68958571D01*
X134761428Y-69072857D01*
X134732857Y-69130000D01*
X134704285Y-69158571D01*
X134647142Y-69187142D01*
X134475714Y-69187142D01*
X134418571Y-69158571D01*
X134390000Y-69130000D01*
X134361428Y-69072857D01*
X134361428Y-68958571D01*
X134390000Y-68901428D01*
X134761428Y-68615714D02*
X134361428Y-68615714D01*
X134161428Y-68615714D02*
X134190000Y-68644285D01*
X134218571Y-68615714D01*
X134190000Y-68587142D01*
X134161428Y-68615714D01*
X134218571Y-68615714D01*
%TO.C,POTW1*%
X136071428Y-75241428D02*
X136671428Y-75241428D01*
X136100000Y-75241428D02*
X136071428Y-75184285D01*
X136071428Y-75070000D01*
X136100000Y-75012857D01*
X136128571Y-74984285D01*
X136185714Y-74955714D01*
X136357142Y-74955714D01*
X136414285Y-74984285D01*
X136442857Y-75012857D01*
X136471428Y-75070000D01*
X136471428Y-75184285D01*
X136442857Y-75241428D01*
X136471428Y-74612857D02*
X136442857Y-74670000D01*
X136414285Y-74698571D01*
X136357142Y-74727142D01*
X136185714Y-74727142D01*
X136128571Y-74698571D01*
X136100000Y-74670000D01*
X136071428Y-74612857D01*
X136071428Y-74527142D01*
X136100000Y-74470000D01*
X136128571Y-74441428D01*
X136185714Y-74412857D01*
X136357142Y-74412857D01*
X136414285Y-74441428D01*
X136442857Y-74470000D01*
X136471428Y-74527142D01*
X136471428Y-74612857D01*
X136071428Y-74241428D02*
X136071428Y-74012857D01*
X135871428Y-74155714D02*
X136385714Y-74155714D01*
X136442857Y-74127142D01*
X136471428Y-74070000D01*
X136471428Y-74012857D01*
D13*
%TO.C,D1*%
X130370000Y-69309998D02*
X131170000Y-69309998D01*
X130770000Y-69909998D02*
X130220000Y-69909998D01*
X130770000Y-69909998D02*
X130370000Y-69309998D01*
X131170000Y-69309998D02*
X130770000Y-69909998D01*
X130770000Y-69909998D02*
X131320000Y-69909998D01*
D14*
X131770000Y-71809998D02*
X131770000Y-67909998D01*
X129770000Y-71809998D02*
X131770000Y-71809998D01*
X129770000Y-71809998D02*
X129770000Y-67909998D01*
D12*
%TO.C,MCP42010*%
X128585000Y-74365000D02*
X128585000Y-74590000D01*
X133235000Y-74365000D02*
X133235000Y-74590000D01*
X133235000Y-79490000D02*
X134585000Y-79490000D01*
X133235000Y-74365000D02*
X128585000Y-74365000D01*
X133235000Y-79615000D02*
X128585000Y-79615000D01*
X128585000Y-79615000D02*
X128585000Y-79390000D01*
X133235000Y-79615000D02*
X133235000Y-79490000D01*
D14*
%TO.C,R1*%
X132612936Y-72325000D02*
X133067064Y-72325000D01*
X132612936Y-73795000D02*
X133067064Y-73795000D01*
%TO.C,ISOLATOR1*%
X116360000Y-74970000D02*
G75*
G03*
X116360000Y-72970000I0J1000000D01*
G01*
X116360000Y-70735000D02*
X116360000Y-72970000D01*
X126640000Y-77205000D02*
X126640000Y-70735000D01*
X126640000Y-70735000D02*
X116360000Y-70735000D01*
X116360000Y-77205000D02*
X126640000Y-77205000D01*
X116360000Y-74970000D02*
X116360000Y-77205000D01*
%TO.C,JP2*%
X111415000Y-79900000D02*
X111415000Y-77900000D01*
X114215000Y-77900000D02*
X114215000Y-79900000D01*
X111415000Y-77900000D02*
X114215000Y-77900000D01*
X114215000Y-79900000D02*
X111415000Y-79900000D01*
%TO.C,R2*%
X115760000Y-69642936D02*
X115760000Y-71097064D01*
X113940000Y-69642936D02*
X113940000Y-71097064D01*
%TO.C,JP1*%
X110820000Y-79900000D02*
X108020000Y-79900000D01*
X110820000Y-77900000D02*
X110820000Y-79900000D01*
X108020000Y-79900000D02*
X108020000Y-77900000D01*
X108020000Y-77900000D02*
X110820000Y-77900000D01*
%TO.C,R3*%
X132365000Y-69994564D02*
X132365000Y-69540436D01*
X133835000Y-69994564D02*
X133835000Y-69540436D01*
%TO.C,U1*%
G36*
X113029030Y-79764635D02*
G01*
X112929030Y-79764635D01*
X112929030Y-79664635D01*
X113029030Y-79664635D01*
X113029030Y-79764635D01*
G37*
D12*
X113029030Y-79764635D02*
X112929030Y-79764635D01*
X112929030Y-79664635D01*
X113029030Y-79664635D01*
X113029030Y-79764635D01*
G36*
X112629030Y-79964635D02*
G01*
X112529030Y-79964635D01*
X112529030Y-79464635D01*
X112629030Y-79464635D01*
X112629030Y-79964635D01*
G37*
X112629030Y-79964635D02*
X112529030Y-79964635D01*
X112529030Y-79464635D01*
X112629030Y-79464635D01*
X112629030Y-79964635D01*
G36*
X113329030Y-79564635D02*
G01*
X113129030Y-79564635D01*
X113129030Y-79464635D01*
X113329030Y-79464635D01*
X113329030Y-79564635D01*
G37*
X113329030Y-79564635D02*
X113129030Y-79564635D01*
X113129030Y-79464635D01*
X113329030Y-79464635D01*
X113329030Y-79564635D01*
G36*
X113329030Y-79964635D02*
G01*
X112529030Y-79964635D01*
X112529030Y-79864635D01*
X113329030Y-79864635D01*
X113329030Y-79964635D01*
G37*
X113329030Y-79964635D02*
X112529030Y-79964635D01*
X112529030Y-79864635D01*
X113329030Y-79864635D01*
X113329030Y-79964635D01*
G36*
X112829030Y-79564635D02*
G01*
X112529030Y-79564635D01*
X112529030Y-79464635D01*
X112829030Y-79464635D01*
X112829030Y-79564635D01*
G37*
X112829030Y-79564635D02*
X112529030Y-79564635D01*
X112529030Y-79464635D01*
X112829030Y-79464635D01*
X112829030Y-79564635D01*
D15*
X106640000Y-67270000D02*
X109180000Y-67270000D01*
X109180000Y-67270000D02*
X109180000Y-66000000D01*
X106640000Y-67270000D02*
X106640000Y-66000000D01*
%TD*%
D16*
%TO.C,J1*%
X136660400Y-68320000D03*
D17*
X136660400Y-70682000D03*
%TD*%
D18*
%TO.C,U1*%
X107910000Y-81900400D03*
D19*
X110450000Y-81900400D03*
D20*
X112990000Y-81240000D03*
D18*
X115530000Y-81900400D03*
D20*
X118070000Y-81240000D03*
X120610000Y-81240000D03*
X123150000Y-81240000D03*
X125690000Y-81240000D03*
X128230000Y-81240000D03*
X130770000Y-81240000D03*
X133310000Y-81240000D03*
X135850000Y-81240000D03*
X135850000Y-66000000D03*
X133310000Y-66000000D03*
X130770000Y-66000000D03*
X128230000Y-66000000D03*
X125690000Y-66000000D03*
X123150000Y-66000000D03*
X120610000Y-66000000D03*
X118070000Y-66000000D03*
D19*
X115530000Y-65339600D03*
X112990000Y-65339600D03*
D20*
X110450000Y-66000000D03*
X107910000Y-66000000D03*
%TD*%
D17*
%TO.C,POTW1*%
X136660400Y-76568000D03*
D16*
X136660400Y-78900000D03*
%TD*%
M02*
